<mxfile host="app.diagrams.net" modified="2023-10-03T14:35:51.457Z" agent="Mozilla/5.0 (Windows NT 10.0; Win64; x64) AppleWebKit/537.36 (KHTML, like Gecko) Chrome/117.0.0.0 Safari/537.36" etag="cJZEgNDt7iTOW6Cjfxjt" version="21.8.0" type="device">
  <diagram name="Page-1" id="THgm5hsjda__lxIDqkVe">
    <mxGraphModel dx="7266" dy="3722" grid="1" gridSize="10" guides="1" tooltips="1" connect="1" arrows="1" fold="1" page="1" pageScale="1" pageWidth="827" pageHeight="1169" math="0" shadow="0">
      <root>
        <mxCell id="0" />
        <mxCell id="1" parent="0" />
        <mxCell id="Lqcc9QHmygvOLOeyvJeg-108" value="&lt;b style=&quot;border-color: var(--border-color); font-size: 50px;&quot;&gt;Scaling, self-healing, updates...&lt;br style=&quot;border-color: var(--border-color);&quot;&gt;&lt;br style=&quot;border-color: var(--border-color);&quot;&gt;&lt;br style=&quot;border-color: var(--border-color);&quot;&gt;&lt;br style=&quot;border-color: var(--border-color);&quot;&gt;&lt;br&gt;&lt;br&gt;&lt;br&gt;&lt;br&gt;&lt;br&gt;&lt;br&gt;&lt;br&gt;&lt;br&gt;&lt;br style=&quot;border-color: var(--border-color);&quot;&gt;&lt;br style=&quot;border-color: var(--border-color);&quot;&gt;&lt;br style=&quot;border-color: var(--border-color);&quot;&gt;&lt;br style=&quot;border-color: var(--border-color);&quot;&gt;&lt;/b&gt;" style="rounded=0;whiteSpace=wrap;html=1;strokeWidth=6;" vertex="1" parent="1">
          <mxGeometry x="-1010" y="-630" width="1370" height="1130" as="geometry" />
        </mxCell>
        <mxCell id="Lqcc9QHmygvOLOeyvJeg-107" value="&lt;span style=&quot;font-size: 50px;&quot;&gt;&lt;b&gt;Co-location, resource sharing...&lt;br&gt;&lt;br&gt;&lt;br&gt;&lt;br&gt;&lt;br&gt;&lt;br&gt;&lt;br&gt;&lt;br&gt;&lt;br&gt;&lt;/b&gt;&lt;/span&gt;" style="rounded=0;whiteSpace=wrap;html=1;strokeWidth=6;" vertex="1" parent="1">
          <mxGeometry x="-870" y="-290" width="1070" height="730" as="geometry" />
        </mxCell>
        <mxCell id="Lqcc9QHmygvOLOeyvJeg-106" value="&lt;font style=&quot;font-size: 50px;&quot;&gt;&lt;b&gt;Container&lt;br&gt;Application and dependencies&amp;nbsp;&lt;/b&gt;&lt;/font&gt;" style="rounded=0;whiteSpace=wrap;html=1;strokeWidth=6;" vertex="1" parent="1">
          <mxGeometry x="-675" width="750" height="402" as="geometry" />
        </mxCell>
        <mxCell id="Lqcc9QHmygvOLOeyvJeg-57" value="&lt;font color=&quot;#f7f7f7&quot; style=&quot;font-size: 50px;&quot;&gt;nodePort: 30010&amp;nbsp;&lt;br&gt;&lt;/font&gt;" style="text;html=1;align=center;verticalAlign=middle;resizable=0;points=[];autosize=1;strokeColor=none;fillColor=none;" vertex="1" parent="1">
          <mxGeometry x="-310" y="990" width="410" height="70" as="geometry" />
        </mxCell>
        <mxCell id="Lqcc9QHmygvOLOeyvJeg-104" value="&lt;blockquote style=&quot;margin: 0 0 0 40px; border: none; padding: 0px;&quot;&gt;&lt;div style=&quot;font-size: 35px;&quot;&gt;&lt;div&gt;&lt;b&gt;apiVersion: apps/v1&lt;/b&gt;&lt;/div&gt;&lt;/div&gt;&lt;div style=&quot;font-size: 35px;&quot;&gt;&lt;div&gt;&lt;b&gt;kind: Deployment&lt;/b&gt;&lt;/div&gt;&lt;/div&gt;&lt;div style=&quot;font-size: 35px;&quot;&gt;&lt;div&gt;&lt;b&gt;metadata:&lt;/b&gt;&lt;/div&gt;&lt;/div&gt;&lt;div style=&quot;font-size: 35px;&quot;&gt;&lt;div&gt;&lt;b&gt;&amp;nbsp; name: frontend&lt;/b&gt;&lt;/div&gt;&lt;/div&gt;&lt;div style=&quot;font-size: 35px;&quot;&gt;&lt;div&gt;&lt;b&gt;&amp;nbsp; labels:&lt;/b&gt;&lt;/div&gt;&lt;/div&gt;&lt;div style=&quot;font-size: 35px;&quot;&gt;&lt;div&gt;&lt;b&gt;&amp;nbsp; &amp;nbsp; app: frontend&lt;/b&gt;&lt;/div&gt;&lt;/div&gt;&lt;div style=&quot;font-size: 35px;&quot;&gt;&lt;div&gt;&lt;b&gt;spec:&lt;/b&gt;&lt;/div&gt;&lt;/div&gt;&lt;div style=&quot;font-size: 35px;&quot;&gt;&lt;div&gt;&lt;b&gt;&amp;nbsp; replicas: 2&lt;/b&gt;&lt;/div&gt;&lt;/div&gt;&lt;div style=&quot;font-size: 35px;&quot;&gt;&lt;div&gt;&lt;b&gt;&amp;nbsp; strategy:&lt;/b&gt;&lt;/div&gt;&lt;/div&gt;&lt;div style=&quot;font-size: 35px;&quot;&gt;&lt;div&gt;&lt;b&gt;&amp;nbsp; &amp;nbsp; type: RollingUpdate&lt;/b&gt;&lt;/div&gt;&lt;/div&gt;&lt;div style=&quot;font-size: 35px;&quot;&gt;&lt;div&gt;&lt;b&gt;&amp;nbsp; &amp;nbsp; rollingUpdate:&lt;/b&gt;&lt;/div&gt;&lt;/div&gt;&lt;div style=&quot;font-size: 35px;&quot;&gt;&lt;div&gt;&lt;b&gt;&amp;nbsp; &amp;nbsp; &amp;nbsp; maxUnavailable: 50%&lt;/b&gt;&lt;/div&gt;&lt;/div&gt;&lt;div style=&quot;font-size: 35px;&quot;&gt;&lt;div&gt;&lt;b&gt;&amp;nbsp; &amp;nbsp; &amp;nbsp; maxSurge: 1&lt;/b&gt;&lt;/div&gt;&lt;/div&gt;&lt;div style=&quot;font-size: 35px;&quot;&gt;&lt;div&gt;&lt;b&gt;&amp;nbsp; selector:&lt;/b&gt;&lt;/div&gt;&lt;/div&gt;&lt;div style=&quot;font-size: 35px;&quot;&gt;&lt;div&gt;&lt;b&gt;&amp;nbsp; &amp;nbsp; matchLabels:&lt;/b&gt;&lt;/div&gt;&lt;/div&gt;&lt;div style=&quot;font-size: 35px;&quot;&gt;&lt;div&gt;&lt;b&gt;&amp;nbsp; &amp;nbsp; &amp;nbsp; app: frontend&lt;/b&gt;&lt;/div&gt;&lt;/div&gt;&lt;div style=&quot;font-size: 35px;&quot;&gt;&lt;div&gt;&lt;b&gt;&amp;nbsp; template:&lt;/b&gt;&lt;/div&gt;&lt;/div&gt;&lt;div style=&quot;font-size: 35px;&quot;&gt;&lt;div&gt;&lt;b&gt;&amp;nbsp; &amp;nbsp; metadata:&lt;/b&gt;&lt;/div&gt;&lt;/div&gt;&lt;div style=&quot;font-size: 35px;&quot;&gt;&lt;div&gt;&lt;b&gt;&amp;nbsp; &amp;nbsp; &amp;nbsp; labels:&lt;/b&gt;&lt;/div&gt;&lt;/div&gt;&lt;div style=&quot;font-size: 35px;&quot;&gt;&lt;div&gt;&lt;b&gt;&amp;nbsp; &amp;nbsp; &amp;nbsp; &amp;nbsp; app: frontend&lt;/b&gt;&lt;/div&gt;&lt;/div&gt;&lt;div style=&quot;font-size: 35px;&quot;&gt;&lt;div&gt;&lt;b&gt;&amp;nbsp; &amp;nbsp; spec:&lt;/b&gt;&lt;/div&gt;&lt;/div&gt;&lt;div style=&quot;font-size: 35px;&quot;&gt;&lt;div&gt;&lt;b&gt;&amp;nbsp; &amp;nbsp; &amp;nbsp; containers:&lt;/b&gt;&lt;/div&gt;&lt;/div&gt;&lt;div style=&quot;font-size: 35px;&quot;&gt;&lt;div&gt;&lt;b&gt;&amp;nbsp; &amp;nbsp; &amp;nbsp; &amp;nbsp; - name: frontend&lt;/b&gt;&lt;/div&gt;&lt;/div&gt;&lt;div style=&quot;font-size: 35px;&quot;&gt;&lt;div&gt;&lt;b&gt;&amp;nbsp; &amp;nbsp; &amp;nbsp; &amp;nbsp; &amp;nbsp; image: carlme96/noteapp:frontend&lt;/b&gt;&lt;/div&gt;&lt;/div&gt;&lt;div style=&quot;font-size: 35px;&quot;&gt;&lt;div&gt;&lt;b&gt;&amp;nbsp; &amp;nbsp; &amp;nbsp; &amp;nbsp; &amp;nbsp; imagePullPolicy: Always&lt;/b&gt;&lt;/div&gt;&lt;/div&gt;&lt;div style=&quot;font-size: 35px;&quot;&gt;&lt;div&gt;&lt;b&gt;&amp;nbsp; &amp;nbsp; &amp;nbsp; &amp;nbsp; &amp;nbsp; ports:&lt;/b&gt;&lt;/div&gt;&lt;/div&gt;&lt;div style=&quot;font-size: 35px;&quot;&gt;&lt;div&gt;&lt;b&gt;&amp;nbsp; &amp;nbsp; &amp;nbsp; &amp;nbsp; &amp;nbsp; &amp;nbsp; - containerPort: 3000&lt;/b&gt;&lt;/div&gt;&lt;/div&gt;&lt;div style=&quot;font-size: 35px;&quot;&gt;&lt;div&gt;&lt;b&gt;&amp;nbsp; &amp;nbsp; &amp;nbsp; &amp;nbsp; &amp;nbsp; readinessProbe:&lt;/b&gt;&lt;/div&gt;&lt;/div&gt;&lt;div style=&quot;font-size: 35px;&quot;&gt;&lt;div&gt;&lt;b&gt;&amp;nbsp; &amp;nbsp; &amp;nbsp; &amp;nbsp; &amp;nbsp; &amp;nbsp; httpGet:&lt;/b&gt;&lt;/div&gt;&lt;/div&gt;&lt;div style=&quot;font-size: 35px;&quot;&gt;&lt;div&gt;&lt;b&gt;&amp;nbsp; &amp;nbsp; &amp;nbsp; &amp;nbsp; &amp;nbsp; &amp;nbsp; &amp;nbsp; path: /&lt;/b&gt;&lt;/div&gt;&lt;/div&gt;&lt;div style=&quot;font-size: 35px;&quot;&gt;&lt;div&gt;&lt;b&gt;&amp;nbsp; &amp;nbsp; &amp;nbsp; &amp;nbsp; &amp;nbsp; &amp;nbsp; &amp;nbsp; port: 3000&lt;/b&gt;&lt;/div&gt;&lt;/div&gt;&lt;div style=&quot;font-size: 35px;&quot;&gt;&lt;div&gt;&lt;b&gt;&amp;nbsp; &amp;nbsp; &amp;nbsp; &amp;nbsp; &amp;nbsp; &amp;nbsp; initialDelaySeconds: 5&lt;/b&gt;&lt;/div&gt;&lt;/div&gt;&lt;div style=&quot;font-size: 35px;&quot;&gt;&lt;div&gt;&lt;b&gt;&amp;nbsp; &amp;nbsp; &amp;nbsp; &amp;nbsp; &amp;nbsp; &amp;nbsp; periodSeconds: 5&lt;/b&gt;&lt;/div&gt;&lt;/div&gt;&lt;div style=&quot;font-size: 35px;&quot;&gt;&lt;div&gt;&lt;b&gt;&amp;nbsp; &amp;nbsp; &amp;nbsp; &amp;nbsp; &amp;nbsp; &amp;nbsp; successThreshold: 1&lt;/b&gt;&lt;/div&gt;&lt;/div&gt;&lt;/blockquote&gt;" style="rounded=0;whiteSpace=wrap;html=1;align=left;fillColor=#d5e8d4;strokeColor=#82b366;" vertex="1" parent="1">
          <mxGeometry x="-2460" y="-1060" width="880" height="1460" as="geometry" />
        </mxCell>
        <mxCell id="Lqcc9QHmygvOLOeyvJeg-109" value="" style="shape=image;verticalLabelPosition=bottom;labelBackgroundColor=default;verticalAlign=top;aspect=fixed;imageAspect=0;image=data:image/avif,AAAAIGZ0eXBhdmlmAAAAAGF2aWZtaWYxbWlhZk1BMUIAAA3ibWV0YQAAAAAAAAAoaGRscgAAAAAAAAAAcGljdAAAAAAAAAAAAAAAAGxpYmF2aWYAAAAADnBpdG0AAAAAAAEAAAAsaWxvYwAAAABEAAACAAEAAAABAAASdwAACMUAAgAAAAEAAA4KAAAEbQAAAEJpaW5mAAAAAAACAAAAGmluZmUCAAAAAAEAAGF2MDFDb2xvcgAAAAAaaW5mZQIAAAAAAgAAYXYwMUFscGhhAAAAABppcmVmAAAAAAAAAA5hdXhsAAIAAQABAAANGGlwcnAAAAzxaXBjbwAAABRpc3BlAAAAAAAAAIAAAACAAAAAEHBpeGkAAAAAAwgICAAAAAxhdjFDgQAMAAAADFRjb2xycHJvZgAADEhMaW5vAhAAAG1udHJSR0IgWFlaIAfOAAIACQAGADEAAGFjc3BNU0ZUAAAAAElFQyBzUkdCAAAAAAAAAAAAAAAAAAD21gABAAAAANMtSFAgIAAAAAAAAAAAAAAAAAAAAAAAAAAAAAAAAAAAAAAAAAAAAAAAAAAAAAAAAAAAAAAAEWNwcnQAAAFQAAAAM2Rlc2MAAAGEAAAAbHd0cHQAAAHwAAAAFGJrcHQAAAIEAAAAFHJYWVoAAAIYAAAAFGdYWVoAAAIsAAAAFGJYWVoAAAJAAAAAFGRtbmQAAAJUAAAAcGRtZGQAAALEAAAAiHZ1ZWQAAANMAAAAhnZpZXcAAAPUAAAAJGx1bWkAAAP4AAAAFG1lYXMAAAQMAAAAJHRlY2gAAAQwAAAADHJUUkMAAAQ8AAAIDGdUUkMAAAQ8AAAIDGJUUkMAAAQ8AAAIDHRleHQAAAAAQ29weXJpZ2h0IChjKSAxOTk4IEhld2xldHQtUGFja2FyZCBDb21wYW55AABkZXNjAAAAAAAAABJzUkdCIElFQzYxOTY2LTIuMQAAAAAAAAAAAAAAEnNSR0IgSUVDNjE5NjYtMi4xAAAAAAAAAAAAAAAAAAAAAAAAAAAAAAAAAAAAAAAAAAAAAAAAAAAAAAAAAAAAAAAAAABYWVogAAAAAAAA81EAAQAAAAEWzFhZWiAAAAAAAAAAAAAAAAAAAAAAWFlaIAAAAAAAAG+iAAA49QAAA5BYWVogAAAAAAAAYpkAALeFAAAY2lhZWiAAAAAAAAAkoAAAD4QAALbPZGVzYwAAAAAAAAAWSUVDIGh0dHA6Ly93d3cuaWVjLmNoAAAAAAAAAAAAAAAWSUVDIGh0dHA6Ly93d3cuaWVjLmNoAAAAAAAAAAAAAAAAAAAAAAAAAAAAAAAAAAAAAAAAAAAAAAAAAAAAAAAAAAAAAGRlc2MAAAAAAAAALklFQyA2MTk2Ni0yLjEgRGVmYXVsdCBSR0IgY29sb3VyIHNwYWNlIC0gc1JHQgAAAAAAAAAAAAAALklFQyA2MTk2Ni0yLjEgRGVmYXVsdCBSR0IgY29sb3VyIHNwYWNlIC0gc1JHQgAAAAAAAAAAAAAAAAAAAAAAAAAAAABkZXNjAAAAAAAAACxSZWZlcmVuY2UgVmlld2luZyBDb25kaXRpb24gaW4gSUVDNjE5NjYtMi4xAAAAAAAAAAAAAAAsUmVmZXJlbmNlIFZpZXdpbmcgQ29uZGl0aW9uIGluIElFQzYxOTY2LTIuMQAAAAAAAAAAAAAAAAAAAAAAAAAAAAAAAAAAdmlldwAAAAAAE6T+ABRfLgAQzxQAA+3MAAQTCwADXJ4AAAABWFlaIAAAAAAATAlWAFAAAABXH+dtZWFzAAAAAAAAAAEAAAAAAAAAAAAAAAAAAAAAAAACjwAAAAJzaWcgAAAAAENSVCBjdXJ2AAAAAAAABAAAAAAFAAoADwAUABkAHgAjACgALQAyADcAOwBAAEUASgBPAFQAWQBeAGMAaABtAHIAdwB8AIEAhgCLAJAAlQCaAJ8ApACpAK4AsgC3ALwAwQDGAMsA0ADVANsA4ADlAOsA8AD2APsBAQEHAQ0BEwEZAR8BJQErATIBOAE+AUUBTAFSAVkBYAFnAW4BdQF8AYMBiwGSAZoBoQGpAbEBuQHBAckB0QHZAeEB6QHyAfoCAwIMAhQCHQImAi8COAJBAksCVAJdAmcCcQJ6AoQCjgKYAqICrAK2AsECywLVAuAC6wL1AwADCwMWAyEDLQM4A0MDTwNaA2YDcgN+A4oDlgOiA64DugPHA9MD4APsA/kEBgQTBCAELQQ7BEgEVQRjBHEEfgSMBJoEqAS2BMQE0wThBPAE/gUNBRwFKwU6BUkFWAVnBXcFhgWWBaYFtQXFBdUF5QX2BgYGFgYnBjcGSAZZBmoGewaMBp0GrwbABtEG4wb1BwcHGQcrBz0HTwdhB3QHhgeZB6wHvwfSB+UH+AgLCB8IMghGCFoIbgiCCJYIqgi+CNII5wj7CRAJJQk6CU8JZAl5CY8JpAm6Cc8J5Qn7ChEKJwo9ClQKagqBCpgKrgrFCtwK8wsLCyILOQtRC2kLgAuYC7ALyAvhC/kMEgwqDEMMXAx1DI4MpwzADNkM8w0NDSYNQA1aDXQNjg2pDcMN3g34DhMOLg5JDmQOfw6bDrYO0g7uDwkPJQ9BD14Peg+WD7MPzw/sEAkQJhBDEGEQfhCbELkQ1xD1ERMRMRFPEW0RjBGqEckR6BIHEiYSRRJkEoQSoxLDEuMTAxMjE0MTYxODE6QTxRPlFAYUJxRJFGoUixStFM4U8BUSFTQVVhV4FZsVvRXgFgMWJhZJFmwWjxayFtYW+hcdF0EXZReJF64X0hf3GBsYQBhlGIoYrxjVGPoZIBlFGWsZkRm3Gd0aBBoqGlEadxqeGsUa7BsUGzsbYxuKG7Ib2hwCHCocUhx7HKMczBz1HR4dRx1wHZkdwx3sHhYeQB5qHpQevh7pHxMfPh9pH5Qfvx/qIBUgQSBsIJggxCDwIRwhSCF1IaEhziH7IiciVSKCIq8i3SMKIzgjZiOUI8Ij8CQfJE0kfCSrJNolCSU4JWgllyXHJfcmJyZXJocmtyboJxgnSSd6J6sn3CgNKD8ocSiiKNQpBik4KWspnSnQKgIqNSpoKpsqzysCKzYraSudK9EsBSw5LG4soizXLQwtQS12Last4S4WLkwugi63Lu4vJC9aL5Evxy/+MDUwbDCkMNsxEjFKMYIxujHyMioyYzKbMtQzDTNGM38zuDPxNCs0ZTSeNNg1EzVNNYc1wjX9Njc2cjauNuk3JDdgN5w31zgUOFA4jDjIOQU5Qjl/Obw5+To2OnQ6sjrvOy07azuqO+g8JzxlPKQ84z0iPWE9oT3gPiA+YD6gPuA/IT9hP6I/4kAjQGRApkDnQSlBakGsQe5CMEJyQrVC90M6Q31DwEQDREdEikTORRJFVUWaRd5GIkZnRqtG8Ec1R3tHwEgFSEtIkUjXSR1JY0mpSfBKN0p9SsRLDEtTS5pL4kwqTHJMuk0CTUpNk03cTiVObk63TwBPSU+TT91QJ1BxULtRBlFQUZtR5lIxUnxSx1MTU19TqlP2VEJUj1TbVShVdVXCVg9WXFapVvdXRFeSV+BYL1h9WMtZGllpWbhaB1pWWqZa9VtFW5Vb5Vw1XIZc1l0nXXhdyV4aXmxevV8PX2Ffs2AFYFdgqmD8YU9homH1YklinGLwY0Njl2PrZEBklGTpZT1lkmXnZj1mkmboZz1nk2fpaD9olmjsaUNpmmnxakhqn2r3a09rp2v/bFdsr20IbWBtuW4SbmtuxG8eb3hv0XArcIZw4HE6cZVx8HJLcqZzAXNdc7h0FHRwdMx1KHWFdeF2Pnabdvh3VnezeBF4bnjMeSp5iXnnekZ6pXsEe2N7wnwhfIF84X1BfaF+AX5ifsJ/I3+Ef+WAR4CogQqBa4HNgjCCkoL0g1eDuoQdhICE44VHhauGDoZyhteHO4efiASIaYjOiTOJmYn+imSKyoswi5aL/IxjjMqNMY2Yjf+OZo7OjzaPnpAGkG6Q1pE/kaiSEZJ6kuOTTZO2lCCUipT0lV+VyZY0lp+XCpd1l+CYTJi4mSSZkJn8mmia1ZtCm6+cHJyJnPedZJ3SnkCerp8dn4uf+qBpoNihR6G2oiailqMGo3aj5qRWpMelOKWpphqmi6b9p26n4KhSqMSpN6mpqhyqj6sCq3Wr6axcrNCtRK24ri2uoa8Wr4uwALB1sOqxYLHWskuywrM4s660JbSctRO1irYBtnm28Ldot+C4WbjRuUq5wro7urW7LrunvCG8m70VvY++Cr6Evv+/er/1wHDA7MFnwePCX8Lbw1jD1MRRxM7FS8XIxkbGw8dBx7/IPci8yTrJuco4yrfLNsu2zDXMtc01zbXONs62zzfPuNA50LrRPNG+0j/SwdNE08bUSdTL1U7V0dZV1tjXXNfg2GTY6Nls2fHadtr724DcBdyK3RDdlt4c3qLfKd+v4DbgveFE4cziU+Lb42Pj6+Rz5PzlhOYN5pbnH+ep6DLovOlG6dDqW+rl63Dr++yG7RHtnO4o7rTvQO/M8Fjw5fFy8f/yjPMZ86f0NPTC9VD13vZt9vv3ivgZ+Kj5OPnH+lf65/t3/Af8mP0p/br+S/7c/23//wAAABNjb2xybmNseAABAA0ABoAAAAAOcGl4aQAAAAABCAAAAAxhdjFDgQAcAAAAADhhdXhDAAAAAHVybjptcGVnOm1wZWdCOmNpY3A6c3lzdGVtczphdXhpbGlhcnk6YWxwaGEAAAAAH2lwbWEAAAAAAAAAAgABBQECgwQFAAIEAQaHCAAADTptZGF0EgAKBhgZv/9hUDLgCBDwAwxQ2YpXfQUwGCG1VA9TYL/yqFcbeblCRJDAEY2yVcjpTyelFUgg6R87t77Mz8NzyJRnF9sAt6ecMlBRBG0P6vqfBgPdxu6gubWpNSny1zvAXwAOWvqrYfE/8XkjRc42h2+l0HVi7C0IKkhdW1MJV1+tEYzCUX6cTw5g5kIfBjkLTn49QAGrdfwGu4iGShrOm4yAWIjP8MpZ2rE3Nl5rA4MnnpPTPDJVxkK7D7v3dj4t+PfyLBjM4VVYVc08fX1qepRxZuIQuNofOtGghcxpV/C4uQvMb4bi3oYYlknZX+AAAAA0GHqGP//S/MRuduwK2ILrdEfes/GkSOvsDWbrm0BM4+3fDD8FK6XkIZwNbg9dIXZgWKRIXCyl4VjuwdBjyHvkOL2NxgWBM77y+T9GO0yUTUGaFMvIPu7JVVT/u9w+rpp8z5k81hKPdkUlHw+HJNXvuQ6iadlX6Hb6It5BUCIR46QCstQoGEvXVO2X5giep48xDQCZ5XlF1vYotE40bJFRs6FeI3FtgTRTrNWu+fXPw0zqB513kYNo2f4pIryAoheOmRPM2n6RWis+VLJ3w6Vj42gSMgAWEEY17Md5eCVgHnuGm2Hoh9wHdlvkzC7BQmY+wx1hejnAC0nCiGD+3i3giTlb0hsr8rkauVXnOXCWTb+ari5MyzgfJNb8dRTMVaODG0LlSXeqinXHgAXecomjubQ6z3+dUHsG2jNB+JVDTjGtnv0E7srVDrMw7a7/XXmkDzMOpTE2ZnY/I10kMADnCOQf3XegPEmbPR3ZdkNeWiLOANZq+p0lsYQJS6S2QNz5Rgf+J6HyY0LAlK1acloU2NVLjHVacN+vwKkLTDmtLekHMWJrRKVC9zNJOYsiS3VCVO9eHiwsVOLYgq662qAdmpbIjrOYZfJFHQ7Mbj4WZ76GQV9ylJn4T0Tg/maNtIKiYp2O6mUM6Yqv86hJ8byz5FlwcMKoJkMauNP1pLkvXHAYkmI2z86W5ZZ7wMsLL+kgBE1A1Nav+9Yuax3IcrmbGhUdRkM3jBv7fScUcCfjEMlq4EsM+ZmNo4bfv/oEDMpnT8eJQBPg1cAMFcL1vVIXFqCk6pxFclBatVZBxyRte9il8tdA41dYLi7dHbQdLc4XGhKPGjtryegS2LKNg4cE3XeQpBrieS5kLx+EyugQjjC5NNdwIxkMTGFvx2U949GRDzo6My4ioxnMXnByF3+dQIk971IgqyPftPJcmT5KQBI4AWd5pVCgDfMY6b20+xP6vL1NeWJiOjrMXtiWMqPpffb1VlEGgLzBazi0+H6CyVwAHv3ml+0lPmzuO0ZIJ93kZT82Bs/06Ik6Kq2Vw5D3h2XPQ4l4+DPVGt09nBlXcbplOMAAJFTb6AwWIXB7l+h2uTH9pLySIxWOKEE+OtuI2xNAx+7j9JVgoxRnRRwew4vEUy1HzNd+1iYVG2IhANwbGbYWrXOVDx/Gkl8O0U7SA1+GvB+CcLux9cASAAoJGBm//2CAhoNCMrUREPAAwwwxQNmKO3NZgEahx4T/1rWzysjaGVA85V/u9r5okswMOgSy6jGtV4EmU35gpDdZcU0ePf5hZ/k+eAgPWa509n31e2Y9rB4gvcASUFccmCk7mUUm9Q5bNT9soHPsA6XLbqQuKe3ZE4V0KrvAF6ea7+MowfIAVxfdfmMeSrPblByH0ju/a5ba8fxFauPzUSEpxWdDH9nj5BbfKP2sAHmFFRaGzojOgkc8kcw3zcCRZJ5aOgUPWxMUfFFitBHzyUr+9+CXQ7V1SgXGGaqkuPOOoD8uevK6sVObLfW+bMljO7zZJ+OidubFW15mB/p4XyhnQfSjLK5qRnjCeT/k1EvpDhJ+wH4E1y7DWeGaCwYUF2Jy7WWsM2OOc/K49BNK/P5GT2uM7pM+24Abny4j5dbGKvq3j7OVIOfKVPvR7nJ2+Eb5jPdfp//g1G8A39FMc9MekgwFl77nM2QtD5M9V+5kMdHHmkqMqErTxCvaw5+04xECckHG0kyVvhV7Kf76TCHIMIxd12VcpnOzCzWbYyHFZW5nzvPJM6bF8Vn4CIdoMw4c0noLaAHmEI6EdnhzdTr/RaFUOQqxD+7XS32XEw9yrwC/I6zfk2EMHS7m19Pr+7nZoe+hrHYtPyUCCH+C3FxHDTRCLjsW/Cdxh4niukCy1OgjH3S8gdPGe131q4RLOOFQ18mG7wyMcpdEIqx9FpWFKJH2ZYLziyyaZed+XVLrlYZfFv2ymd82rbBsaQXPRYRN9T0OwYdffTTWGAlsbN1O+seUTMIoIs9iGNQP2WBO+LOHJQMBddNidhB3IwsRlFVmxABMfsj2LtCz8y91sU5oohZLWyPR8QLkzwceHinuGbAuMIENIjHWF5Afc3Lvsmju83xm0D3egQmQIQ7LXFhMMdJhR8QpHRDHKoRarSNZObSRSqdciQTfIM6GxzKQ1mTyy0Ex6UYReBfZCDBhMxCSVY93i9c4QuWGAcdDs2bEXVQXk/RH38JFIBusey0D84VaBSu9cKmcxRPN7LiZpkzgMF/itPFFB/qbnVIQf5lVcKKNjSY/LdVfrSgJEFfST29kvg7MDwUWN8vFAx1KKxq2BYyzjz4fjDx2IdSvBkdFRzuHwVeidv+VVkP4PgV69J2Sd0SpHnpRwvJ5pKi4CDlqKxAneGAk2wW0rP1hNllXJ7CCjG2rPgWvBRvKj6Q/RK3ZqfLsChaa7pZO6u0anqcYRUy3S7+yyAcsJrP1ku4UO44j3jQu3HoR/Dkgiq5GQmu7DZI1KxFrg7rlCsbWWPhFz7LzUROwWs42lXKwzSL3EYj0NWEeY3J/QTdXTXaYWyG3QCGqCy8kOEZy7Qh+qWK6lSIMNSohj1vLdFKXCXXSL6no5M/nhHnGoWGA3OM3vGNRP+bmhhJaGNPFVgkTQAn4H65WM3p27iNkCe7qjn8tPLPHK0mrvrmLwA3GqBFELnZEJypgyiFLpGrFvLVB6YF+4hh60EXfA2stayVHos/XFUBuQPgnHICYl9LS/EjTpsI5onCKCskUmlw48cZVmh5yux8KIvnHH2+/f9Re21nHVOfUl1mw0+JNJfs8aibm8fUllGlWl1n0L4+/BEaar1CsqaV7m3/NCDUQbn3lPIdJvu/ZL2iwgSEGPDkLUKAbjDeJqkHBHOMGPCTtQeks3qItSI78CSOisT9SC4Y8W6qyZUveu7kqknBYz+ZAMfx3ubYBQ0bYq2Sea0aYYMw/Dvn/UABE3GvfqUh9xUamUy5noRnPEIBCFQ3n0ax+VojTLSBDv2u9AsNrfULYuZU3z4qzXyJ5wfOTVqxnD5TdTBP2t1oyzjkbvaW0hXQ6je6LZZpXtFZUHtYoNodNT+l7o5Ky1tP9yv8OX88tRMUhTwHzMmJBntg68UXPnFGMLO1WmbDHMyIdMaI7lifdmEOslCw/YAAXcVhh6SJGn77itszF5wO0wjOadU3OPvwRCNv3ZlGbolG9YF8hn3KcTEfjWKbJDE6r6B4X7kPxkuVBp3fwCk7n5/qPpznYpRyrCgaJlD0GU9nTcI7iiIOcxXfL8GPCQHkRMpcBwqeOuOp1zp/ejDTubwSbm7NFX/8Y7rbBtpcFCWUyUsfeInbytFE7I/gji96ec1nxVBPueSUGvyQTFk71nkwY864ZPlNlbMnnezuJdii14osLMesRui9Fzo8MfnZYAw4yCb1B6svKDkffTbx2C0vtXt9p8uXmN3bPRlWSL078kyM9gpbzRVkj6wrlo0BGq/7gClwEZn2TFh1JaJERl9/oaoo+9vqeJd2DnpA7nYYyu5XatJTtbPkZSgVp3o2+crEFeVVrlJJC5Jz7Zb6DOssmwXVR6EFRAvij2TDW0TM4nzM3/ZWzFvWxIsV60cq/E04D34Sh84raXhbZBdF9y3pFJAuwDTuEJfpJt7Kwny6JB1RxsiksK27iIKHjJUWslyjME5qSase7pv1N+BbWtDbBpcqIoI03156H7DGwSCUC/3dpJJT3HhdweHHLAjnUrxgXnb5fkAY8yyWx1MABP944Kcnocx1hu9JiQws+8bonkr5aAnSo/DhJlOEcmNSsQe/yvRsSpHnL7bgbnH6NvNhhsYrCUUi2dCsziaaB2iWu0rE9ZIPFbrnUVhmHsDVXcjYn6UL+MrewFS8k8eYV/E1gFHmTpwbZ3/odQGDyqEZk6A9igluPy8u+fgAxyz5ABUNggOStFw5tAeb6z3Q7tyami0Volby6x9Nk8Fvhtr+J/HkwJw/TVg2UhuP7jkezpB9yLLmBdg0pUIltOC8CDpyhx8T8F+FSUB1U4E1ZuG8yPEK0+OwAAABCh2EILIzh+rYMmcTX14OmmtcsAj8c1Mjq6bp0GlG+ImwI5gp5Wi3keb3QqgJigAl/kH0C09pzTV8x4xY9zzTUuPeeg2EchUY3Ar3038TEMcDXzbYJMxmOhSbxU4pgvAzcZkG8L0wIuac0HJWuFhhMGXJRjGEg;" vertex="1" parent="1">
          <mxGeometry x="-940" y="-370" width="190" height="190" as="geometry" />
        </mxCell>
        <mxCell id="Lqcc9QHmygvOLOeyvJeg-110" value="" style="shape=image;verticalLabelPosition=bottom;labelBackgroundColor=default;verticalAlign=top;aspect=fixed;imageAspect=0;image=data:image/png,iVBORw0KGgoAAAANSUhEUgAAAJgAAACiCAYAAAC9IwTqAAAAAXNSR0IArs4c6QAAAARnQU1BAACxjwv8YQUAAAAJcEhZcwAADsMAAA7DAcdvqGQAAABhaVRYdFNuaXBNZXRhZGF0YQAAAAAAeyJjbGlwUG9pbnRzIjpbeyJ4IjowLCJ5IjowfSx7IngiOjE1MiwieSI6MH0seyJ4IjoxNTIsInkiOjE2Mn0seyJ4IjowLCJ5IjoxNjJ9XX1Ws5orAAA3MUlEQVR4Xu2d93NcV5bfD9ARAAHmHMBMiiREUZQokZKGCqOZHYWZ0ezsTm2o9bq85fJO7Q92+R/wf2CXq/yDXS6Pa6d2vOvx1mp20o5yHAVSlEgx55wTiNjdCD6fc/uCDRBo9Ovu190g+0iP3ejud98N33vSPffchmElqVOdQqLG7Gud6hQK1QFWp1CpDrA6hUp1gNUpVKoDrE6hUh1gdQqV6gCrU6hUB1idQqU6wOoUKtUBVqdQqQ6wOoVKdYDVKVSqL3ZPQvQOXTQwqK/6d0ODSEynJa/unzrlozrARpHrCsDUnx6W63eG5Fb3kHT2DElfaliGtKsijQ0yralBZk5rlFmtXBGJRVQU6Od1upfqADMaznIqBdfQsHT3DsvlW4PyxYm0HDybkdOXBwxkmcFhiUcbZO70iKxfGpWO5XHZvCIh01saJBlvkIgCzTG2Otg81QFmNCypzLDc6RmWw+czcuhsWo7o69nrg3JbP4N7DQ4oB9PfAZ54TLlYUoHW1ijt82KyYVlM1i2JyapFMWmKqwhVENbJ0QMMMPQqgCVy5fagXFQwnbk6YBzr+KWMnL8+ID39iMUGQfp5yNBZdmm3xSIN0tbcKCvmR2XNYgXZ0rgsm9MoC2ZFZI6CD6BFzIx6cAH3gAHMiUKVgjI4NCTdfUNytVPk00P98sXRtHx9Oi2dvUMqJkWiCh5gkU/aUZaqazKo/yQVTLMVVFvXxOVxvbaujsn0aRFpTgAyLQuQWlkPFtgeMICpsq7K+21V3A+eS8uBMxnZf3rQ9C0+M1Go6OM/B6/JAeZf+R0cC0DNaWuQpXPQ0+KyUfW09So+W5tVtJrorAPs/iJtHso54u7izQE5q2Lw9NVBOXZBlfcrA3LhxpDpX3A1LwrzgWoiohfpyCEtCO7XojraotlRWbUgKmtVfC5fEJElc6Iyf0ZEmhJiXO1BANv9CTBtkko5E12pNIr6oOpUw7JLxeCXahkeVXABuEEThe6WYkA1EdGjTgw7q3NmS6NsWh6TLasT8siquCyciZHQqMZCo+lo97PovE8BBlcakku3h2XfqbTsPZlWy3BArnUOqt6lHA2LcEyryw0we82KWnxk8ZgY0BbNapSN7TF5ZKWKzqUxmTO90Tje/bqoch8BzHnbb/cMyQW1AE9dzsjRS4Ny8tKAnLvmwJUZcINv0kmpnKCaiHgeHQygo4qhpniDzJvRKMvV8ly1MCarF0akfX5MuVpE9TTqNsLS7gua2gDTqlN5dKheVdAB14nLA8ax9p7I6PuMfa4G44goqubQGdj0QjTj/Z8xrdH0s0dWxWSTcrVlcxultUl1tGRERavH2dQG25QHGHrOqSuDsk9Btft4Rg6fT9sST19qyAbSEOipBgCWSwDILz3BwXDYblEdrWNFTA0E9DPEZh1goZKvnZca/I2ldkVF3lm1AlnGOXoRi3BQLUIU+iFJq47F77yhVotD5NuF6ARHLDXNUo62aHZEVmJ5LlIRuigmi9XyxGnraOqBrTYBllMl1GT+hbD8unqH5Eb3kC3l7D/tlHe87t36HbfdtcqmDtE66g7Hpf5tagysmBuVjpVuGWq1gm1GS8SWp5oSvnFTo5FTAmBoWuhRR86lZc+JtHx6OC3HLw5YpENGFXt+kUtTEWBjmmB/wtXmzYiYo/apDQl5WEUnxoGjOsCKJ60SomNQr0sq9rAID18YkBMXMnJWLcIrt3GcuugGao8onGqgmohsMPQfE53apgQL602NsnCWszxZ8wRwy+ZFZG5bxNpdy9EbNQUwqkLHskZ4U7nT1dtDclRF4cGzaTl4bkCu3R6UXkSh9iedbzrWfU420ZR709a25gZZpDpZh1qcgGyVik4iOtpUfLYkG42n1RrWagpgKO+IvGMXnSj85GDK/Fg3upzXfaqLwmJo7OigMsQjIgvU6sRRu30DelpcDYN4TeqfVQeYA9WwXFRRyDrhoXMZOaGgOquK+xXlYD3KzXCQ+tn5IIBqImKk4Gh0QUL1s1YVnfNnNsgyNQjWLo7LuiVRaZ+nXE31Npy6tSA6qwIwHonXvVv1qJtdQ3L55qCJQtYIAdjVTgVWylXrQRGFQcmLTngaMWmLZkWVk0XlIeVquDdYVMeRS3QH/VctsFUFYHAtXA5Ej+46mpKPD6Tl9JWM+bBYl8MvVAdV4QTQHNjErE442dObEua0XaEcDUPhvgcYjyEW68L1QTminOrgmYzqV5msc5TvhizClI6gKx5kURiUGEEbRP0npmBqTrAZBdEZkTXKzTYuc1wN8AG2SlKIAHPFpol17x1WsTco564NqgKfkcMqBk+pnnW9a9CC/Ig2cGzcbqlTCYTo5GJUW5saTFSuXhiV9YBsYUyWzInYbijChSqxd6DMAHNFWSONbQ/LjTuAakB2H01bPBaK/J1eFYXauDqowiXGgLFAMrATau3iqDyxPmG7oVYsiJruRjxcmDpaKAADQFiF+1UMHjidVqswI5duqeKuehccDeD5BtUBFh7dFZ1E2TbaygAL64tnK1db5LbdsRSFy6NJxWoYVDaAobizYYLYK8KRT14ekCPn3TohliIbWUdvfqgOjTSWztem+7/z9YJVl3rbq4/Wr247ghKcjDbC1VqSInPaIqajrVOrky13q1V8LlTgYXVmW1oWKhlg/vZO1bNwM7y3r192HUkZ0FiAjmAVan25qkGueuM10YF9uEG56bB7b6LCfeVIb+NOBod3wywh8G7cMl0ZU4Foj6kwKjpnqj6Gw5a1zqc3JmzfQCLuuFk5mlMywOBcbPN6c0+fvLO3Xz4/mpJU2ulfbLX3871anU/raCJmPO+pB07IpIqE5iT7Gp3V1aziAxESi/oNGc70J/QH7kt8GROGkGuulDba8lVomXjQG7VgC9+aAkSd3asaWMoA2Dcwo6VRXticlGcfTsrWtQn7vgYApmKxx4XO/OKTPvlMOdfV24NVtwppEc1ipgIWgAOQyCMxW2cseSVwQk7XTm1VRbdJTXd2awMu7wGn6txPKgFi+NMDhAsNSZeC6462mbXSm2oFE9zIljfCiPpVv/QE4KBq9UGhRBvpL8aLxfTnFWQvbWuSRbMi2m+lz5iSAMbmVbZ+/dPHvfLe1yk5o+8ZqGqQa4XTqRhcrCM/M/H/LFXW364duFT1DpRaTHXAldT6GgfKcq3xyHcQBgrcjBWIa7eH5NLNATlzddD64PyNAZtcvfodu8UBJkSp1XJyBiH6j11YW1bH5NUnm+TZjiabkKVWvSSAEfXw5YmU/NfX78iFm0MW/85gVYMYT8Q1r/h/2JO4qT1u28XWqMW0cJbzaAM8VgucWLvLYfKBYKSDtKvsOXoxGJj/iEmMm0s32WuZlr2n0nJUjRt0UH4HuV1DtU0GMFUJ5k5vtD0Cf/3ydONopY5nSQDDp/XhgX7577/uMhcEBVVysrqaO/0Kp+F05UgWbqxWEaBaMtdtdEUkshE2LE6CCKX9N7vdLnE42rELA3L8YkbOqRVNYCRPhrNWsn+CEH1JdzIJsS7//fen2+TEV1YKlQSwr06mTLn/+/d7zSLBYqwEja0xew5xJAKux1VB3bwiLisXRm2LWKXzdsG1bqluhpvmi2Mp42isXrj9mHyP4ZOfY1aT6Fv01B+/0mpOWSRBKVQSPG93uaBAG+8K95cXVYg8HIY/2NGsbL1NXnq8yTgY4KrGGPJI9D5m/x890yL/5tut8sOnWsxzzlY0szzdT2uSkAasGV9STowBVyqVBDAXdTqY5SiVGU04AFdSudb6JVF59YlmeW17szyzKSnt8yI2uLB5OFc1uASPhJNjPOBjQlRj+v/w6RZ54RGto4qfqNYNNw795vqutohJwEoM0S1uOhRfyaIAxgBjUSEKrt/R2ii4KjGWPBc9Bm/z6kUxeXpjUl5Rkxpw8TfLHZUWiRMR4Kau01sixlEx/7/1aJPs2JA0S7ZF2+C0Ewe0WiHGEclAjB4cjPel1K8ogGFB8XCWgLp6szqF+ypU4rlwp+XzYsYRvquca5PqWy1qNdYyUTt8btvWJeQvXphmYhyRafCqIXBBHmDXlHlgHePxL4WKAhjmOU5GRGRPyrPR8MjCqtVSw5+146GE/LkO0pbVcTOpyTLonZq1Sp6bMTlIdvLcw03ynceb5UlVonECw8kAWi2AzXpSK4LzGCeycbESQFYUwNiY4ZO24eEGYGGNMWIRnYYEbmSk2dmRtDUzIgKayuBpriQBNLzjBP8xUZ7f3GSLzWy09eCqNsgYR6rQo1avMRG9UPyLpaJGCP0LHxiRqLaHLEQByexJxsX2A76iCv1zOigujim8Z1aCViyIyTe3JM1IWanvAVa1weUJjkpCGbjXjW4FWAkVCw4wfVhmYMh2/OC5J9tQGATnQhQDJlKF/8Xz0yysBLDdL8SG2u0qJp9TA4DEdA0NzkKuBaIW6Njnrw3IANEMRapBgeGhY25+EkQk+lcYopE+plh8XFhgT6o42bomYUlAwuBcALk/zUI2By84sXBTrWNUAJbDWH/kN+UefNZKcWSSNJhwGd7jv0PnLMH/XQZyLh5C3S/fckmRi6XAABtQnau7DzN2wBZ2w/AK0LlEQeDTQlf5xqakWWHliCGnbG80AJxenSQAyS/xHL04YHsGjuiFB55UBfj68AmxqxzRwT5OD4JyAIFJtPPhpDy2FsMlYlYcVE2MMa6sPlzvZHJhiGS/CEiBl4pgm1+dTMt/eb3TFnhxHUDl5GQ4IedpRz//SFJefLTJwnrLpdADKsJtTqkOSV58siFe71RrSU1yRL5xqqxE4OQOnzkaUc26JumVlqvOxOYJllRYDC7VocsQwC0A9Ou/77WgTdY2YeNhTODJCERwEV5NYrz/+IczrL1YvEEpMMAYlN8fTMn//F2Xgc33bTn6gaowe9mxzFLLnz03zeUxbdORLoEsy7SKOrbIwZEuXHOHLlzUCWJ5W3Uw74pBvSHbwQwuQYRsUKFzWUwHVIiy9vkKtPlR21UN8NCnSsEZzwbgb37ZJ7/b3Sd7jqdNHaHMcvRtEPKIYIKRJfs/vDbdjCxCnIJSAIC5n+07lZG3tBN+/lGviQz0pHIQtVCBYxzxIeVYmPB/9lyLNCcbi5rFvlnEZiHezl7JyCeHU5ZlmnwX6Fu4WyAXujP+agSleOB78BGUiCgj+cgT65PyqCroy+dFzeHrNg0XDwm42Adf98tP3+6xOvrVi0qS6znXbtxB//alNnMRMZmCUmBIYrqyjIAYKXe7yQ/DGt7DK+KyXXUvHJOlPAL/DbvH//mTXvlvv+qSX3/eZ6kJSEtA3cmT6kKkJ24LHwNwQOV/D4gIwSFS4mfvdstP3tCyd/Xa3k9cOKXQEuWODCaiiSjcUnxQpRJj3JcWU4XYKVYMFQwwGAIzmAddUwur3BYV5cENl85zu5E5KSPfwOcjxM0tnQi7j6VMn/noQL/tdEIcIgpd3d2CuONcjntNfLnf8Fv/e/REODgGANvzPtjfL7/d1aeAxj9YPCoQxUTcPrY2YaIXo5nqlrm785I+MjuxG8yRfvGGO22umIoUDDDIojf1QcxUwKb9XDL5OnMlVZnu0NmL6JnZGgm8cO1E2bCJFjIg/vKzPvmX3b0mFnsVWADDcl8YSLI3FUnUjbK4ABmbin/2bo98qEA7fTlj1iYgDErUi/0CWM/tKnbx/DtxH7ysUom6MFnxhRHYQN8GrUXBAINVE/9F9ARWGE8qA75GCJ8Qyvz2dUkTE8UQjWdgvziWlp9/0GPGCOtpUcRaOSs7huC8dP7NnkFV0HtNFB+9kDYfWjEEF4OT477AevO7lypNAAwxeeOOs3IzuCuy3xVKBQOMB93qJvx30Kwde1BZBs3NdPxczFiiUnkflBgA8lzsVnAhEr9SrtWpA06kba4YDIOsbH0d1j5iBzsHmf5WLUFSJhQDMrgjnIvd11y+3pXGGI9lbG5pP5J4uZjoigJHUk14fRA6jC1wo8jqiJZjvOg0Kj1f9Y41i6MWbVCMvwXdCrfDe3v7TVxdVrEFVSo+DJDhHMbrzTrtW3v6LWQa10hQzzw15mLC4R7gkFPbc1lhNgawvcpxQyUXbqmgRkfBrAJZfO66IlkfUh5oOaIkOg8TeGN73CzHYoiT1BCJ7M3EK4/FVw1CKaevUCU++FrrczglKYvFz/4gABGehPtjwUzCrRuKKqNUAtOZjBp3qhZdVwYTVK8sGGD4p4i/Z5mI2eqgURpRecrCsYquwYwlvisI+RnG5l9Eo5tlTqF39aws8Ugu2oYzF1cGp5Cw7BKUXPyY08VYTaDMipM+k8fe0n69eCOjkwcWxsWnk1eoIIBRZr+i+Fqn2z5fLqmD2MAVwUmxC2dFLICQv4MQ4hUzmqOQOWAUUVkNYOWSt1Jx6bB17ZPD/cb5g85+RC76KKsZrBQAMH9VjKwtDaZ/ISXgzkGeX9Bw4vHuVC5hERT6avpAGYj+BlAk3MCCLGYnEBbW3pMc5J6x7fuAtrrwukv0E3rrxyq62UTRn85+EYA43YMDswBa0MlXDqIveW5PylmT6QE4aeE9XFCViTi4oR3FAJIMpJwDiBhgSz++n6BiDZfEbbVq8c5fUC4GZ+X2oCANh5y/jaUqVj4OnUtbHYMSBg8TkM3D9FVFuVeW6E4iZ0iXwB4Mt8TGp5N3dGEAU7HIyfys8GP2lzqIns1TBh3IehfLIkEJF8B5NTwIs0H3chZjCRUrI/k+or/IZYGOSOSGb3uhRK4P4uA4KAs9DJ1TS3BfVohoB6oHy2MYL2QaKpQKAhhKNCyeAEPtr7JRRGvuDuiM2KJ2UGLTyeHsEhDcDJFEZ9QUaX3AxKnLnA/uVkCCEHsoOcWDlQ30MO6vJLz8REH3QoKh6Afx7U0yqjRlyExUQlx89EE5iE7HA26dp7OTRe6ghE/uxEUCHyvc6wHIDxBLLRyFg6PaZ94plLifjSEtAEzHNggHLBdRZQy9K7fgyIVXIC/AaAgW5B1FLFvJcVWUy0KjisRZWTCfdhx+nkLJ1hy1xayLksUG7lVpyUjfIK6wDPNdAIILK4wgAXxJA6rHFkoeoK2q7NNXvsyxz8m9wgm5bpC0jv955cIsG7kRnPwZ+QGmF4VSIGIIsJUHX65ycDDOPyTTYFDHKNYjbgAWmuEIlXJNMG5+7NQkcW/ykAdISkFFlAU6DHUvhACJv+D07AYvSM3M+T63vqUQbSBwk4VvluAKLTdvwCFyl8iJX37aJz99p9uFupQBZDySJRX8Xo+tSVjEJAelY3UVQuZcVdD/4pMe+d9vdquO6Mqzzg+ZfMfCTbB852u92Vk1cS86gvtvaI9ZnoqNy+KmT01GjiO51y+PuzTwe46nJtQ1+YzxwRgj+TIWrK9XqWOmVTAnOO39yxfd7nQMtMkmdl6AIXpIQU7Yyz980GOflWMMDWDa4QtmReTJdQn5m++1jZx9WAghAoiSeF0B9rdvAXzXAaV2YiFEbzGI01sa7GCDb3S43dn5nm336IUxw2I+5woVst5q4k7vY6IT9IfFjCXKsyZ6Hr/j3CcijwlK8FRq39AGgM3E+lcvTLO0DYSPT7bWmwdgLkac6ITf7OqTXynILJqzxIpCHmCL50RsX+CPX20LFHdPx3NQ6euf9MrfvdttQXG0olIAg6tgmGxbFzfuy0pEEB2yUGJg/OhQ+kTtc79jp5RYuPWvP++Vz5Xbsb2wnFydZwD4P9k5TV57ig3DUYuHy0d5+TTrTuevp+XGneAOwkKIqhUb7UBDufwAVJLwbJsPTvURDkvFmg2L6J1Ceghm8O6+PnljT58FWBLxUlzPTkx0NaLe/GGdrJq4z/PRhADjZtwSV24NWYqAMLgD9QMk/n0QApdcleBaucTzuFB4r3cNyd6TTECfI628RNP88/K1E8uU+Ld39/bL16cV8GpMoKfmu6co0jbSTJzaV24NqKqgE2uShucFWDrToNajU6hNscx+Vy4CXIg7q2P+eo4i6kGUKlao54ABbi8bwcX26YByviV6UqUJXZRlPPYbsN3t00Mp08Fcnv9yj5aSIhal3ueitbGbpOcnBBgstlMLuqpIpSMn/GGRxOyC3bpDGwICRO9lIy4uDtwb1p8VHl8mHLofHnp8cczqShN5+Tlk7K2v+i2NPNYj9QqL6GbKx2rH3YKVOjTJwnfj+fPn5c6dO5IhqiyH2CRxjfxQyr2wJsvNbimOWU8n4XhkNhZK3JuIEWnQaLFkNHqymVRuwgeGhMBHSMJfNvRWksif8TV7VL9ik27K9ECYKPVirMo9Xp4ol4Vvwo+6FNCkYMhHjWfPnpXOzk4d5NEdxGy4QniOKo/4mMpbaVcYOh4HkQIyuFgQYks/+fBZCGYHchg6UD6iL5zlNmxcjHPGWdie0CgvE1E+A8yuqffVYiSK98yVQaeP6vflG6PxCQaJdUoA4g1lQHCxiQgdrbGrq0vS6bRT2HKIBW7kOYUFHfxCiI7AA4/1w1IUYUBBiA5lfQ5XR1xN5UoDzIhB1R7HqXniotvQW6iXvlhiLNhMArjYkuct2JBxNYpsFUXFJKoBx+tMRIOqAzUCLGbF3ZnHK9uUcFEM2AwNq/IwTTgls4FVgkIJRZMLXxTJf9myH/bMHY8QRyjUtiaqfUX0ar4OL5WIZjCFfk+ffH5ExaJa92gWtN1fYZJ/BlBhvFifds7c8cfu6tWr9+ru3Ix1QAQFu3RAa9krnq0oz6GC+FRcRYPRzGmc4kpSDuViFowXvojKJdqAnxEdFatq36m06axhVIEYLPS8j1Qkfnyw3/Q+/5yyj08BRJs5f90m1ATtRa+/B2BQWuUqs7K8C9z3Eh1E4jdivRHJQYn8YSs5h3p2xKINwhDlhRK+p13HUhaWEwbA2IZH8pb/+0GPLRlhFFUDWBDPTSkHO3XZhalPREuXLpXGlStXyowZMyQWU7NMCZZrq/4qttCN4Ajlbgfl+TIRwcxMAM2zgwwOfjAUfQ69WjYv6u7PfldJQh9k0y+xaQw+bSkXoQMTao1YZBmIIEs4P4Psr0oTz8Twu9VFyBRnaY7f6xG1vhoXLlwora2tEsVzqcQAoxPh10FshTlTrKIqglnAxSLB98Z/hRJOVuLUN7bHbIMqGySoaiXFJIQ+yDog2/qwKC/fKo/LAjF0ScHFphEuThSmv5jyk0UxhEk8GWnBRAIn+MUmosa2tjZJJBKGNoixYZbAxVDCwxwqwnNwtmKtEteFYTHGmJ2UWBdkWxcJ6xbPiWo7Kr9BlbFmaQZAHFVF//TV8gCMIMV9pzMWMcKuKTgFaaTgmNUka692MpYkQZSkFpiIRutg2kkcMspBm5XyTDMwcEpi/tmoWkxYNj6xVQti8mxH0oWQaA8A1EoyMsYcsLMAzsGs+KqKXT7iPrjDR/v75Z2v+kZ2VIfppQ9KSAnqxMJ3PqyMqjLdgbOQHUT4VxwbDm+6UDzPxKjAzMcENzEZYFyoI64CtnZxcgbpBwifcaI2HItuPKIeiGz6jokCVw7ievEEuBgwUmh+dCBli+lOVXEcv6ZIm4dqQ2yeG8l72zsaYPo9GYVvdQ+b05AZWZEm6UPwuR0852KYigEF0aWk3uTAKfLpU0YlRSVj78J4iCYdtMyKxVjGrGqcVOvsZ+/1WAI9OAQcutiwptBIG9ygdWIysJllPHBBowCGN/22yn1u6NbXSkwYHsHAwDFPXx40RZadN8UQCj8HGnBsHiewsSAOyCoqLrVBzOo9J9LW+YWC3PkEhywi4p8/7bX8YuyWom9qkRg3RDZ6IhyMVJvjuYlGVR+WDrgYbN4bwEIHmdsBzfMQL1+dcNlx0M2CWoNEV5J28tFVCQVZk2xdE7cYcjqimPKKIRgNxsoRVcrZ0Y0uNhmhMGNUIRZxopJAr1PHwOldoQ9A0UTViLQhfKe7d/xlshyA3VW2Ye3oApXAFyDmYqYzGz49nLKd2pOt0ucjUhFwPuMPnmqWzSvj5iujHeALkN293O/LSUwWOBE5wtDFbqiVNRH5eiAWMQz+6fe9tnjNGDApahlcdCjj1pvmdBSn6FveuDE0ioOhd1286dhdCH2flxAFGBiAi0w5Fp0QXIUZIQ6BJ1sz50r+6bPTLGtza3OjlYmlWqjoKoYom3AnUpKfvppf3FMfONevPu+TL4+nlBsMmQN5qpAtfCtjOH01Y2AbS6MABrvDq86McvyrcoQVBkdh8Zs4dzrdc9JiCHHJGuVDS9n5k5TvbW+Rb6puho5GLoyWhDs4gfL9hUhCXNmljy2Gw1EmRFk4XVlOQfzzdy75tu49RV6zlOw66hR6YuPgXNV0pBZC1I6LdiD5WG1wVvPodo4AzBqsA4ofxzLoVKV9rtrEOpGpkFwOWJWlEFwLq/K1p1rkj3dOk1e3Ncu2tQlZtZCUUW47PlvIsNTgok406aVVKbYPzJ2gF/U/RWIWgDOGkTGJ+f6NL/vlY1Xs4dzcVtNicVzKZhBSvTllHGz0eEX+kxJvsLSOq1j6YH/KFDZYdzXayjMBOBd1QmnnVI1SicHj7B38ZRz0gL9s3ZK4LJ0blXkzI+bmYPd0s3I2AMc2tEHqUCS+lR+bTgKASYEJmDlT3NPBM2mLo8eRyioGRHfXOucaS3RPPEpqA7F+na9tdS1xdBdg+ktCQDCTyaLD4Fa6rTyPi7qYbO9x2ae5iJwolny57EzGdcHBVpRJwmEyK7bPi8rqhTFZr5xuw7K4vXIeERkdWZ7xumCh/eF/x30AlQxCRH3wTCaOHRejE5nF6ws3nBpgnEtvLPARNUOMFe2DCTy6GqtdAZbTUSOjxmeIiHiM98y/6hGdzboeA0ESXfb5oR8Wq4/lEu3kYus+IIKT7XgoaQ7a7z7ZYkbBD1ScvrilyTqNVYJidDGI53DiyP7TGbnR5axzuBU6F/lkj1xwYdaIVIaEa8qR9g19BOd3u5lGd9YIwPgOy4vt7cz0Yju1XGQdrv9wdCBiBMsyX+xRuYhnsmAO58Gas7wT2e+CErocHBB3BW6LQ2q8fKzA+t0XfWYl0+c8byoTOKGvFk6QDmEUB5upLByri/wD1cSXq6ZzwGJpHdWZ/o8f9xrYCIIMi+gDA5hegIsZaZOyGNKCkASoGnDfj5Vr4Yp4e2+/rVOy5c2MAW2nvUxRamxUNWZag+qzLkHe2MaMAAya2dooHcvjMncG+UCdfK0WJ6OeXDyfDD8cNoVoIZM0kQblEJcTEVwLgHE5gPGsYM/jNt/V+N2YHDhRCavGMrbv9Z+pCi7GhcmDlU5EMaHrLmPQ6AaNAtiMaRFLMbR2UVRmt0YsVqva5EGGqAFkWF6sV1pWw5AIUOFHQyf1zy+VWH7zMXZVFQ9lIvqEibNUrXIMoyVzObD/3tmSAzC3Sxpr7elNTeaQbFbTE0CWo4OLJZvlvOrFIjjhK//4Ua98dLDftk2FQQCM+Et0sVI5jL/fSwPflaWWW02iLQRAL5jZaOm3OHqQTTfj+fBGcTB0BhQ2lli2rY3LGuVk5E6lU/xVDWIwUJjhqBy6wJ7At7/ql8+P4qB0yn85RSb9gP5lInJUDxVH1H/sNRXJJoheVJ/jpbesitlB9uCEz8Zr1j3dR+NntDSYT+PVJ5steG8cYFaF/MDgBX9fxSU7bP7+/R45filTssd/LHkxiSKey3kedKIvEsq9ls+LmEuHcHXCpCaicQDmWB3pLR9ZGZOdHW5ZxRLXUnoViboxT/gXRyyBfSj+/+e9Hvnlp722hsk+PUJzSiEew+WPW65TzgTTftm0IibPP5KUlYoLFHs3LuPThN3HsgkK3DMb3aHnLHUAPORvNSmLMeMwgAn/0ieHUnZQ/dt6ITbxMaGvEfJDOEwxxGNISQDAqtzkmiC6EZWBQ8seW6Mq1Lq4HQ7BMlE+yjM/GySZiMi29Ul5piOp3CyhrNHlaa82ZTGW1ZMaLH/ZF8fT8rdvd8v/+E2XpfzEd8Yqv1/mCUqOgzldrI4w55Jgme3pDQlLe7pauZfz3HNNTCNrkfkIGctiMCvmxJz3qQ5kRecvu2JEPXxdiGnDkYkrgy1kRJXirOVruBGAhCarOzrdgTNpC18imA5lP58ouF8JzoU6QmQwevn3tjfLigW4JLK8aZI+yZtl2hMWGvmgfrurV97bl5L92vGek9VSn9MUOBZ1gvuQHAWWzmGnRE1wmj8xYkRVsCxmkRM6ecxrjzjU+3Cy0iR8VhgQ7+3rlyPnMtlzv2uosRUgQ4Y2OaF9iVh88dEmS8NOTrZCu6IggEGAjIVawnpJH36rC3/I3Vtrre+pG2BDZwQ4ZEMk9IcF7sWzSfvkTpK1mDDVN4kIYPXCLEcFGa6PX3zaJx+qtQo3dF79BwNgfljpO6TXsrkR+b5yLrwKTEwnGgujggHGgLE9ft+plLy7t09+vavfdB9Ptdb3NMtqxz9aN8ABSOBsKKYACjbPK+DjFWchh08BMJ8zA7WApSn69EERkSCCbqMvkAA/fKZZtq5WvWsRelewfigYYJ5IaY474P991Gfrgiw+B31opcm30O0scn9TXS7vUIVzsS2fvX76oh1MKgCWQ5QTZpfMHgR8WVfRR/qyfH5UnlBr8bUdzcr1nUsiKAUGGI/GBfDh/pQdzoD15kuYagPgGz6sonTkvb1xf9EeON+DACxPBgdtMLrpN7ck5btPNMmm5fHsOmPwjggOSaXWpog8vTEpT21IytpFMZPV1faPlUIOSO6CG/uLvx80wniDk6PU71gfN089y4fFUhEAc0oe2QXZ2PrMpoQteqK/FOtzqhbRbXbpP6MvF8vlLvvpfU8wLsYPMcja4nObk7JROReZvN1EK64jigDY3YEgP+pTyskeXhk3lwCfUVEvMsMgVz6bMZyX3v2d/bJK5Ovj6zTVyFcZIC2aHZHtDyUskQyW9shgF0lFAcwT1hhWxqtPNKuojNgiaCW6lw5B8WbG1cJ4EshBXajTFMSXjRnCB2f65hVx249A2FbxsLpLJQGMtUl26GxQOQ3qO5aThtNVK4x+ZvCYZSig7AZiUwYuBtwK1RhYnsnFib3sZaBO4wXd1TJRfxgUYfJwLa6l86Lm/yqHZ6AkgEH4lWa3RWwzKyCb1dpoXu8wRAWuAwIBATU5J0idSTgRCjnfVZ6cSARYpCbYsioxsr3Og6/WiSoCrva5jRY5g7rDCsd4wYPFUMkA87RsXsR8Jt9S03a2slrvOyonMWBYNPN1QPHNfOexJgsZqZaBweCQDBegv7KtWf7omRant0wl0kbgqcdLTzvQpctJZSstrrbt4jkx+dZWwq0TNqtZJC3VfeE5gXEDLp1YWLFwMSwettjlm2u591sZBRI/tUv/oQ12v31zLyFOWEIhiw9O24nI18GXV03CHcHKDBP0CRWL29fHbR9GvvoXQ+WDq8rr6S0R2z6OqMQ5Z3HaOvpBO9MNBKkD3I3ekOEv+84+dTRe2d6qMzGdvdepE65MPh97n78n1xrk4j4vLfxveM0l+1zLNeBkP/PET/33fOvLs/bwuV655eX+ntecr0aRv3e8+kxG/BxVg0X/rWuc3kWEBPqsdVgZqbz8UInOe3pjwjLZsKiMSLO+DUD8HMuMXSs019YQ9aIj2Qk9WUwaz4N7IjZZ6Ga3OmXY5/qZWZ/Z33ry9+ReEE5HrGMAwXODin6ew/N4Ls+gHkmtD/Wyz7W83P6x3+s/tH28enrKrS+/C0L8ngV+MnM/93DCLMdyA8tTEUtFkxMLxST1Jbf7bz7vtWw5dmKbfuc4yfhETfzsQhdgEzDrYTh1uY0TQcgXQX6Hv3m1zc4s5NxuUh8RXsPiLB1PhAR6hT9mBsuOTr1ym3RKAxYdQVwbESLmTNWyOVQLHYQgxe5+B2S2Y5G1mvqQC54D8glkdKe96k16IwP8p882yzc2qe7ZFpX//HqnneFoHEh/ggiHUzy0NC7tqqdibbLuyXPIJnn4fFr7ymWVhObPdOFFhKmzm53sPD36bPrtLtcTU0HWLIrZgWDuaOfMCCBpz3hE3wLeFuVUGCV/+HSLGUvzyAKZb2BKoIICDoMSOhJ6CXH9ZPjjNIiRY5npKPezUUTHeKLzmFWkweRk/3nT3a5hLEY2B5NEhJwSgIpku2QEJEAwqtxyrv6GTtu+IWlJgRkwwMq9i7RcLF6ASIIXgDQ87NwcDNa31Whonxez53Mfz16g7+cqKDhJBLASG0VsHDuzbUC14rhn2vV7rC8yNFIfmyhaLvc/ujohO7Q+LLsAsOlaH2LTyFNGmZRFEjfaMEf/3qBte+nxJtvcclP7j5yvbvxdz1FfVJBvbmkyxyhnVpIZyffhuP2b/ZJ4NyYey3zk46AvfRBmGKSPC4fM9NVOfz6bK5XW+w7IR3Qk2+a+v8MlIIH2nEjZNjUAxeoByeQAr1G2UGY1YnTLKhd1+coTzdZxzOx39/XLZ4f7TSdkDfUvX2w1gPK3r1Nrc4OVvUP1RxZ5d2xIGMfjfCBO8Odsnm3rEvKjnS12r8+WODG5cKCO5Qn5199qtaWXhHLS3cdTFsRIPjD8eD/aOc2sYU4qgXzSvbVLYjbJViyIjnAmI50QiDcPEkCNxCBZDNxtIqhwP33bpI9BhXlB24hjFTdTmBQKB8slFEc4GmHWt5SLkQVP/7yHEClwIGY1WaJX6WAj+oiv//0hDt3k0E93XB5cAK7E0S2Hz2VsdxGEaIHts35Glueff9gjXxxL2bY2xDSchcFi9zrnMN3udkng4DRMBsCJocKxfL/8rM9E/OFzLtcqqa3gytSPV55NaDYDN5aDkZKdzxFDALVDgfK+goqkJ5QJuBB9xJrBydoU3IjSI8qNjRPre0Q8ooy08qQdQJCbQq/lrl0SNb/j8vkx2+yy/0zGzpaiXydyjjIB4aa4kcgmtFKV+lIWsQul0DgYM5gL/QldCna+Smcj5rwXLbnE33AgRBGxR9zNYHGKPuAimpaDOEmFBKhIHUBfUgydxzlFAIygOA46JWaNgUScEZPPsSeABLDwrCX6jKU6iL4evPCe09/OXB1UcKflpIodQMkOck71P5jNi0H+MIDG7Lf7rIQsZf8AJHAfQrUzOrm4nzRUlAUwOXSCNKGAg4GGI6HvQZw0/KV+x8QkoTEgZFnO9ZH7LZOMvQJMBvrGwGV3jybuob9RETa1R+WFzc53yDhUgkIEmKcGWTg7Zlmf2S3OwAAIxsEPLsRbBoyZi1KMToJ4I9siHMO7PMiztdfyhd29eVgLJE4ccCI+yCzYl3JcCVGzXhVsFHYyGcKtiMSFazBI6DMQYKXLyfkOB+I4HT7j2TqmtpkEw4UoV0QbupwtC1lDrAhH+p5VPHQ1JkpbS4MBCrCTgzURc5Y1bSd3GGcRoQsCAMqlTFSB3cd0EukzCfMGUM6FoKqHAmPDsoTWPyInLiv31glAeDd65VjuxTOoGv29TrneMyoaEfNzte7jw7H8VAGAuabQcc/p7EFvQH9iKYLGj5D+AYBIOQkIUHDJMT8qea5+j9XWpZ/DpbIfWTmcRogexb1YbD/6Rov8u5fa5Mcvt8lfv9zqLv375W3NpnuYyNGZze89uPiHQSXRSi74IeqGeAfY1J34fb8ncMxPrSzKpc1YZ1igtCfXvcIz0Zm6ezm935WJ3gowmSAAEvAwAXCEoowDMvaqtusk5J6vlMvBUSfSBekiJghcfWdHkzy+lmQjlSWtfvhEZ+JPgqMQyPaUKtKkJ3Cd7C5PDI4n/zG/y6WxAwrREEDAb+EMZHcmQ6JdKo64ECckTyFDz4cH+u0z56a4+4CRuow8PPuaJT4e89E9f3uyz/WGUUXyYfYGXvx3nqi/ncWo3O6k6o4cyOByn6plq9xs/dKoGRhYl5zA5jI7jybaALiYAFjO6LQPr4iZNWwPGNuhIVJFAAYxkMxATHWsQxrObB3pHm0z79GB6Bx0DWafi5TIchS94AxNJi5dJ/Exb5nFzGruParKMruffvJmt/yv33XJT94YffEZ/rO9p9IGSj/gEE5VBmaEw2YRxwt1givxDHNwYluMud+R41Z+ZzmOVdIQ+LZQGC/Um80mTD6MHA4Fg2PzHb4+d/bkoCrkEesvJugG5c7cxwm4HBtIPXJ9WNzrX1EbCB78g61JuxcxWmmqGMA8sYa4RvWB72xtMuWfeHhPDIj5tFREsa5Hp2Dap7UTGVQ6HwsRkx5dxBP9ixjiDGnECyIQ/YrMgnACdBp/8TeKP6IO/5MnGxi95qgexL3ogXyW0frhnATYcAAWszt7nGPUEq5wXy5pXWhSStvC0TgcasFWOXx5gIn1P2/koI+Zs1T7BD3suuqXbDThWTh3ccBimPB7yyWrFun6ZTHT6TBAcGmYa2Ic3ADaravj5usiMS+TtRpUcYAxk8lpQG4DxOVytbR8aAidjwXHrEXhR1/DYsN5in5CCnJcDOQuA4AQ/zKDAZOZ/zogfOeO9nOOVtwHcE9mNKb6Bh2k5QpeQmscx9BLy2HQec5KrRNuAByuGAMo4Aww5bFKgNhlVQEu4+vgB5lXPoWznLoyaG4QnMQ4W8keiaWIrogFi0N488qY1QEXDAaM6WNaSEQvzv/GqMCKpk64Ueaogk7KKqxhRCnP8s+GaANctkNFIn28cblLiYpFWg0K3Q92L2ljdXbO0o5CZNChZ6+RqMR1Dh52OAjm/TrlVDgd6URmPx5uDrpioNBDGDxcFhd1RncpB2CLGSBawr0KTEQwM5d7iVNjOQiL7LE1CQVco3EgRA0co13vAQScAILFataoAoi/cWmwgA8gKPPNL/ttyx5uAgg/FysAzfqcT4/gyXdiHi5mB0HoM+fo8wmUhBu7lYiEbFeLrkPLZFLgH8NqBjSAAdDQNzYhW1X3UisYNwyf/XZ3n+lfuGroQ9QPE71KuEfYUIyjedt6zgGI2Pf0ezWoCgC7S9OaItbZiBJcB3AhxAEdxwUgcAiyEsCq/3odKAbuazXtEYPXO4fMOYnIMCtNv7ty2+W2Z9Zy0ALK7eM6kE+sS5o1BieaOz2q4HQ+MdwSiBN8VmwuxUCgPv0q2rC6EEuY9uiOiFiAgCee/aA8D3pIwYwYjClSye4DB4ZQwHEMs0yGeF2t9YczUt5m5UZwRtISvLO3X3Yf4+BRx40cINyE4y3cEDcLXJizJN9SgCM+IYNO9vf8DqBjRLE6QObnu8tA/rWyVCWAWbeYYxV2jlLdqQCDI9BJDIzztLtTvLjwnOONxzH5tSrnLHoDLmY/A+9cAA3GlQAq+gxHuNxQIPDKwjj6HaIITsGFr4slILgAi+qPKojRzQ7poLOKQFl3tGzAREqoL4455yiH2MNxHRgc10C3Q7y7g0hBngM8HAedj/bxSpuo+zkFN1yQI3MOnXOH4rsWOO4FcT9l00cAE2LZir2olGOqhf7YgKj/waWfXJ90Tu2FUePcrrBsgVWgUKIpghAiEKcqh3C+saffBpJBwYaLKgBnqnjAS09fAhQXBeGWoCAMA1Oa+UP/4RWLjN/jU0OHQswBIjhbt3IUFGo78J6B0d/x3c5NCfmrP2g1ELCkQ33gMMTbM8jcB0hYFYApcJ8HAhPF53Ol7rn+LuqCkYCoRnxP1/qwJEZdaDcXdUbvojjK8Doh7UJfRTX4q29PM1D/3Xvd5uXnvly9ChCS0pINOPgbzWr1FawiaddWl9B/EJPbVRS9vK3JRB+faVdrBzdYNAai7JReiBrABfXrADFI/J07RehS7qdv+xQMLLucVKUYHxg6G5EdlumZ307Q/3wORlirRBSd0vvhOnA7xOnY+4jdguuOl4+M33IPLg2sT5aK8G8h1s1pq98bYLO/hwxc2XYB8m8o+NEJL2lbEKmA2GMLLke8Gysk6F0YQIArt7xqkg1lNQn9gZmIn4eUnc92JMxa9KChAxk01+HZD5XuvnNEhzKY7rK/stzM3UsZcBPKG4+4B07F5a1aixiFA2Xvhe4+w/40olpWNX/lkK8LNNKWbHnup3A+x/24KIcEu+h+7Dt4bUeLiUf0OtJmwWGZVK5cx32xMFnExu3D2q9xw+z31aaqA8wT4gO/F2EtLMrOmEYHufATAMjlOs4NxNhrLPnPAcvI/VbGOPfooGIxotdw6m5/Zsiey2/9/byO9xzIl3dPuVnyn1P/3PL0/3t+D+jgVrhEsFx5pTIs+h/QC+7loUkZ82e6+DfOxMTTXy1/10RUMwCD6NitqkcQr0SiWWZ8rj4TGulziC7FAtzLmeFqYTL41SLajcMV4waL+afv9Mibe/osqBC9lKrxG9ZDiaRlEXvVotrck1l1JX8UZatC1AJW3D+832uxXkQyOL2svORbzrC0NDWYExQ/FNEJKNH23XgsKUSiTsm4mOefVQwmGIv7LGoDOiYDIhaH7yZV/v94Z7NFSuCAdVRbIKstgGUJyxJl+Fef9cqHB1IjyyV0XVjjjTcdXc1EmYIZMVYtQvejLnApiKrYBKNyBsAGE4ssAz37cMIcsbVKNSUiPaFo47j8wTMt5iVnqWVALcowZwKAwoPPElU1wQWhq1EP9Cku3qNvwQpwefgEJewhwAKvZapJDgbBUVC8Ca/hlDK81zg88diPKPv8sLpYCJd0ZBgc42Q6TICJCFcCBR5Xy5LIVOeSqd1OqFmAeSKbIh57Ytrxkl++5R2laktp1Yc90O4zskHRf+CmRF1MbxYDF7FhKPa4cryzuZap5gEGoZOh4LIziLh2lljwB/WjkWfpfgKZH5AGfUN40qJZUXlkVdROXOlYmci6N6ZGi6cEwJzD00V5Yk1h4bEYTvQElbcG1HwrAhAA4kVBRAAkS2WIR1Y5iB2zn9QBFh5RZbzZTjfhf+96vD/IwJVFGTpWtJHW8ffUAFUuTUmA1WnqUG3buHWa8lQHWJ1CpTrA6hQq1QFWpxBJ5P8DZFXUf0n9egIAAAAASUVORK5CYII=;" vertex="1" parent="1">
          <mxGeometry x="-1087.65" y="-720" width="187.65" height="200" as="geometry" />
        </mxCell>
        <mxCell id="Lqcc9QHmygvOLOeyvJeg-111" value="" style="shape=image;verticalLabelPosition=bottom;labelBackgroundColor=default;verticalAlign=top;aspect=fixed;imageAspect=0;image=data:image/png,iVBORw0KGgoAAAANSUhEUgAAAFwAAABYCAYAAAB4fpBOAAAAAXNSR0IArs4c6QAAAARnQU1BAACxjwv8YQUAAAAJcEhZcwAADsMAAA7DAcdvqGQAAABdaVRYdFNuaXBNZXRhZGF0YQAAAAAAeyJjbGlwUG9pbnRzIjpbeyJ4IjowLCJ5IjowfSx7IngiOjkyLCJ5IjowfSx7IngiOjkyLCJ5Ijo4OH0seyJ4IjowLCJ5Ijo4OH1dfdzAxNgAACDJSURBVHhe3V3bjiTLVd1ZmVn3vk33nBnP8bFfEBIvSDzBLwCSjSU/8w088AF+4B0JyZaQsIEPsARCWAa/wg/YsmzwnNvMnDPjM2cuPX2pS95Ya++IzKisrKrumW4DXjW7Mq47dqzYERmZ3R0T/e0//GP1L//+E7lcLKWKBIhFokgi6UmFD8FYA6aF8VVEqLurjGG1TFWVEGsvTFd1iJteAla5Yla+iW8DyzY6NiOK0P8apt9LnRfRVpHFInM2kCum88tQSanRpCwl76WymBzK64N7En3vB39f/dOP/00u53MQHkFirdxbafgaQCurA3Q10PCygzlypPoCvSyrn/XiN4Ceu1K5b6DU7x7zdNAsXhQ+39dp0BBeSdFLZDHel5fjQ4m++/0fVD/80Y/Uw9mlMrLKzUhbJ1exuafmRV11CNTbwBJT66ygugX5DQ/TsJXld61JK29qE4jqkuvQLNStywSt1Gl25YCvthIQjfbDXFrHWA+dKnuxZP2RXEB6mogPlxANsR2EGun6tMs04hvu+mwjxerjgzK0x38Yc7Vr+LJh7uaPL79JVsuRkB6IVmFcxbezGb6+F37zo0MFL4+yTEazM+qxDA6mV6jhtxQdsA2yLY/iO9iVt00aYrqEZHWle1nNr/UyvEOuAl82LgpJ8kLbqBvQsArN8OHrCdGVTiG60hvBRx2gK2+HsF6nMH/Lh/ksV38CnVvkumCdBBsDd3tFgrs26nDlEsB0l8dbhQnWei3XJbvQVcfLNnSVD2Ubusp7uQp8zz1JdtNUFkBiw10DLo0hfEw9fBU+ywzyMa9Tx4Bu4fLXZRe66njZhq7yoWxCV9m2XB9GttfAG2Q4IG55KvlteZEUCNPDrwiqMofXEMIMrX+sbPhxdTWnCf/2CLfSCEEiCtL0vqA3fwfs2+vS3/s+9uH/+mPswxfYL3KsrBi3hRG2NFTAoiXJhpSobOPm4xYm9Kbo1kOmawHVYDD6rw5VYcFr49p1SRrtR1DtZLwNJLGPWqoCC+ifeTduhp7sMkFVbKlJAB+Q4gLFQHiPqzfKdxFOniI8cXIPyRS2USKPOjhLeggXuGaJ4CmK6VCEQjHK91DPzKB9NniEcs8cXBlmPpO0ny5unTG08zx0IAGWZbrZamU9GGaaL0tsatOXJdp5HowTbLMHpZUSir4VXCoypC/R90wSrBpJkaJMqpxUUS5lDOkVyp9E6S7CaQArUn9PshhEJ7GUaSLLpCeLNNJrgYelGIYkkBjG6C6HhpNwZ6x1AIQjKewMs33cFdWEOgxo/oqe1XrExrqtesSmurTZQ4OtujY4SKwSODhXZnhudiHJ4lSG2UzGeSWDvK9enqlTkuyFZFEBx8QgpZOrEM4nTlaO5QKE56OR9L/yQC5A+kUK0uMeRpOE9zC6EJQn6axjvaVOC2oMI+89Ty/I9KSE3tYFr4dQchDmhdhZt1W21uPim8AsX5awovCaPvqd5iKXLyV98bmM37ySPXA4ytD/MpZLFMljDEgEwjkZBmPpTY93E87Fn2k5iD1DQnZ4LNXXfk+Kk3uST4ammEsJCaeH0xh8K7DOrRisvQus78DWzm+vurku6m1R21lPF1L+Q13/jocXxslHhOWU3js4fy6Tpx/L6IvPZfL6tQwXyEW/LzHzlyA8wVKTx7EUkwOJjh9I9N2/+0H1zz/iy6t1wmM0QNLZXA4Fr7Em5e99VV7e/33pffA7Uh5O5BLTJSu5RcJCwnuDLtL0eipx3s0v6FbC7csuTCdcEuM+6MNaxCWG4ZW6LuyzPIF+gHzRsKxiQ12SrXXbetBPTWNc8+cyOv1Cjp58KNOnj2T66ksZLXGTRNYMs5/3ubTM4eFYgqd3pLz3dfLjm1oHK3r99FvGojTGyPVkFqcyT1KEUyniBKPIdR0C5WyAa1aOpSaHK+TY8VAKhAsXbtK6w6zPZcz0mKzkc9Z5aef5ui6+rc12nPX4dk9t5TUIlxT0s0Sfy14KYkZwsqH0CltGuBnhW0J7U1jCYSmY71xDscwWuGliI2Kj6dfVnVDPhVLeeVnPEvU7hgf0MaKUQVFgdNEaGjXwdmPr+wBtDgtMx/JS+tUMZZdWHumcUVySIsySBLuAQZGj7FLGxYWMijNM0Zkk7IVzhx7aSFGX9Vl2UGSIZzCR7cIuEFhh2xahDrduKewZ5pRK+qyDHUZSLQT7B7SNLZ3gpicJpIKthfZlnKN9SM97OHuNa4QdSVyhJgjn7NYNBrNJNuziEq7LOO2goE/wcK639F8jjd+6dmsMZVjOhYkeDVaClkoob5YRjB8tM9lfYIqdv5HR2Ss5nM9lirQqz6AU+yUuKVCWwID+5RsZvnkio4tHMlo8laPyXI6xXI0xAFzzBHf5REmZyX52Kcf5mZzMeWN6KPHsc0miS+hbwlYjeLJcyPT8TO7ml3KUnUl09lyG0FPNl9hQoCfVBXo+BylzGc4u5Gi2kDtzs3c/P5WjHgYdgx3nIK6Ax8Jbe9kcVU6xRr+QwzfP5ej0pQyWS+hCXyrcLHFNwB2dqEC/Cl0+8aGTQXpwlpjbRgySX4o4A+I/+bNvfeeXv3ooWQ4lyrkj3r0XJzQFhM1QI9rfl8vxofT2cfMcTrgVlSiDpziyy0cfSu/pY4lfvZJsNpPlAFuotA8PgzfA1tHlpUxe4gbz/BOpvngkxYtnUr2+kMUZCNkfY9czwMxBp0Fg9dmnEv/6qcjnT6T//LFUr57DThidjjCt+zpdx7B7cn4q1eOHIk8/kfL5EylQLsmWsrycSa8PD49BFLwoOjuT3mdPJXn0WOQLlPvyM5lD1CmSfVkUfTgh7obLcxnMXkv87FPpQe/o2RPJv3wu6dGxzAcD+A0f0zEXsN9O5xfSe/1rONFrhM/hUHgIwuDpAyBJBnm6LPanEo3v1I7cDeNewSCFHs+bQQ7RZQjCsc3h0cXpCxk9+ZUcffxT2X/0C0kf/5ccLC/11SSnU8yl5hLbJ9zRDz/8WI4ffiRHH30io0efSPbsMdZQ3ICxt+9hYPuLpQxfvJbR42cyePhI+v/9mQw+ei7jp2cyPl3IZMblhj9RKWS8OJfD55gtD9HuRz+Xo09/KSefP5STl0/kGMRxsOldycWZpBiQEWw7+uinkJ/J6NNPZPDiTDDM0h9icAp49uWFTF69ljuffyJ3Pv6ZHHz6cxmgX+OLV9hnY3DQF2hDx9F5kErPJg9oQqGk0tPxrw1HOHM6cjtApTmUc2/JK19kcQniC/by4lzS7BW87oUMshcyxFKRYprHWFu5xnE9L8oLTPVTSTBF9+HFh3N4PAaln6OjeaFrHn8OyCVrjPV1jPoTeNzo7EKmZ0vZWxSyj5FOMbUSeBKGX2IM1BDTfACixrBhfI4rHGBcZjLCzBxwNqCrXI9TLFHD8g10v5BJ+ULGy1Msh7gvYAmKsd5FWNp4Dxhhdo7wQDMu0Jccy0n+BssMljzMKDp4pDcwpVqhPzPVgEa5VlugBdxHlAmLtcBUim6zXBESnOGpM4fo1g8uz3cuXC568OQejC76S+xcFpIM4PvoJB/5SSTfKSxTejFvYiAKo4B7vl0xgH0sFyNMn0HB8liDyxn2VSBjmMkQesdob4jp2ceVeukuBUZ7Di9fMILlqIAXRNwxQHOuu4kE5VPcgCusudwgQC+ewbN+JkWKWZQiHWSXuHHCOtRboD60QSqE82SJBxzcC/iIDifgcpEU3AKDEA44iXbLr3HMNHV4fQXShpXsAPlVMU4VjJPkQglHp60FHRDeetU7C9zwsBbynQLDHAi+eOcWiai3kLyCDJiPela2REMVtpwVFucCnlZg7S3jS9xDZ6gDktAAl7KCrxg417RDvGEhHQNSYeDYIe0U0grEc67dICcG4SmWghQDmqKtNB9ou/RLPhFSBxZG8AdioZ1x9sr6wrLYwfD+wb6SZHz4aF/7OHnCV5uzNoxwlArzWUlnTCCqgFdeWN5p1FeTbEpJJeG4kWQjdGioJEboqN5EcFe37RH27fA4/upAhv0tfZxPqVyWWIIPX7xHkKyqxxs5SIBXZiB8AaLx5KxLGcuqS+EfbSihoCK5IIpUwGojUY2lvegsOkLiUhDYz4ZKesn9N+oV1ikV6uKSibs9yqAv2UD7hZ2w9lH7i3IMqhvRBm2EtjC8GeYMlC2lmOUVkZhhFskIom/OkM5Xtuwot4wklyX1Ts4O02tAj05lJZ77XOzHkUrjexgILArQganMQWEPmK5eieFgJzGFfTqFF0aRZbNCO4uugLxKBxHLHbzZrqAfdtkQsBwFGmAfSdPFR/fHpIJvsrnamy46BxY6hJHu+khDuJ8n7NdKoI8zDVXIBfV7rrqghIdgQV8h9G6froSDgD5JwEcVI50l6Flcp0k2B6HEtaCQcO0yi6JDUBSTDpDK9V96C+RgWwhilAukw8GV6BjuroJZwCWL7VNLbZMKLXHPEyCH8Yo7CSUdVoEE7QutQAN8aLOtHR9Q6LX2oMXfyYn48APPtocg6kRFrQPHoaAeVdvAURobarIhm7BG+EZACSmjMuozYYp2wxFs08xyzRD95vLAPIjuT71oPoEyyOOVhPLlD6NWwpdjfnMhtHVkVuqdIEsJaLSqHZrHNCODXk2YLTZUpAEtI9GE5GP+ah0T1glnLftDHasSOucmUOvVAWUeRgy3hAjAiEbYHAsGhQE/FMQKJy0wS3XXHd6CINt0hoPosUWHEszFDTNBNwFs07XrWWyB/fDEWtzEN1OH16sqwFdDxC6QCHMQb1gIZqzr0nc12sZ63vWwoQe3gXc1dQvW3hbq4KBBXs2LHclbjKg1hAVr78BVk+pSV0bbtgZbjHHL3NUBXfznHI8tOh+/FeiKwKY6Zs/VQFL4D8KVz4x3ov2mYt8FyttCrYRQqQ978QjDLId2w6QO0E6uyvynLxhvGebhkB12GV0oZEtKF3ZpuC5aA6QeaHcCW6bIDqlCCv/BY6yET7dy9CTm4UtF1RAa1VKrYSJs1ucjbBbZpwa4Uw61utWv1SLgkqwMxLbNTtUmaA7KrZZyWlWugCsW83D21dCWtANekQtrmkY1zGmlg8F0l+zLaNjVs1zNqsMEidGPb9zns6Aa5W2zMoGJqsXbxB/L1bqZAbAsd/wWa4GpoayCXqTqVcwABF1BNuQbsbWKct2VEWVVqYef71Tsw4RvyAPxeir6tjeDhNBePhw1g3l7aG81NmKj2T4DVx1vnb74p8JML4S/XgEo2l06ICVUvVaa5VYKbMHtE+3h7ireYw1qZsuG1bR2JxBXcm8O69p8SjBTaM/KoPoym+DydxW7RfT00frauHmLlTsLNmHXjKWHbW5qHyXVK6zGOlbrWUl+202WT8usr5MU0jw53xw6H3zMkHU0aeEaSgQ1tMN+xrADDAfxTdAOupKtsPHk6/Ia6GmmnQPj7bQ2VLPq1TeNsJGy8h4obOMGodtC2swHnBA6yrxCtIt1xzdA811HiDYRa8R0w3vXStsuvIZt9tRATW2bSrkctW9b5tH6tgz285Wukq/xzlbfCWseHsYYDuPqddrJwGjvgsqSS/fE69U6YppCbeugitqzXbyp4dv0pLlMbZ9Xu+wGC/oWXH9IMD9OlcZB9pVVXgNrj/aE76heQ7Fsh6Djna7WNtfHfdkw7tPcVfeZLgrxP1lq2iN49fEwvQtoy3v5GuxRyfJbzsHwDXs5Lb0yPPFvDS5fjjzOLOXVpZn4uF3x7eowGA4uwmqIl13wpPmyjYfbNYwTDIfxm8O1CNfB3mjH7o6TOP3BKnTwF2auvUHyJGs9Xl38qtja3nWNeTt0E462tSvuqvBpFmuhndNVCp7KD1hn10r+RtIOxmut4dTSa2D2tUgPyzX1VmpvN+mdsUZ4Y4YLk+idRrCAL+Q1BFKTYoQTSjaCuoT4PP1uiRbzsZtGoDnsAtGO3xCUcPJhu4/N2N3dwDoNokZAtIJkk2AftYsG/ED4Aa7zbhm+HV675KaBbeHVVZOI9n79txFXGXCbodcfEv78H5du0ldy1ozgnT3YQrWhAxmgHd8FtrfW5u2A7XiE4V14G9v0hzRdCJPXi5BoB7XQsVODKxVr4Vo/3SG+g3T+eoR4gQepF0GY/nbvfK4Ap7b5ea3DLTWna7ih1UIrqgW3GeHzruvJ/xegthsVtJ7EB8TcKHr2g8fAYwFt1IIraNLa5myqcVMIRlqb2Tby1wX7EvaHDdgvE2kzN9kUsOHnPbtwFStCa69mtdboMMh+iQhOoXOeV+cgjPvwO8IsdL+1pVwb8TYAN4fOmaPdcu0oCV7qts28Bohr550oKT6dhDDN522Gz7UOr4p9U5fTp3pDeQewPSeEtsmwi98klHDy0LXd80neAL1qSocl3lqWqEn3NXwaZTO0RNCODxvqVCckOYjvGMxN0F/IRH/421eqVdv0aTePzteztaBxNcCT4MJGuBNN0ESfycCq+AHQ+BZQHS4qgUqrhe9wAH3cN/mW8OSaolBuB52vZ3177FYNpPmuGrxhXm4edXu1esTCcGDNu8Be/7bl5tdvovNHbJsQOvM6bt64W4dOHyc10V5uB90evgFrDwc1btfI2wXt9t4cyi15uLuuwC+NnuB66bwSQqNDXNN4Z0PdPtEs6ABN7zT/2qg3DPrry7dDtEdtsc4qoN1UV9OcFfYDBGepPjzVTDhlEP9YX3eibq4TJJad96WVbM0hQh0WVhv8jjBoficapTXZK20x7OSmgTXc+NmlW43ZWoiZYYHVsI6NNubCLdh7E/23E6v3HT8IuKqR+lVf1rAp3YHZfmh34Sq2toE1vPGYXdCSaMXqeA/H1YWVM702Yf9LjYSmuRqW3oilWrh0s2dV7CdEFMJsgM38hxkX4ZlZPwxT8EHnmniQ7q+dcLbuAnXAGBe7OvhXI51gshd2bdUQRvirBeHDRwgaE2oANjUUIJzCfoprWp3uSNY4rz58XazaojHXTp3zVnp3Q7m8CkIT6VxKtRrlLfUWsmQgSrQjSmUztCTU+NJ+kLSm3gcILaUept5+hYFcRXf50EI/2LcBtEOivBi0sSaqaKc1/URAIyBASagz3hKma11+s7itFvmXo7i02AW6GvRpVgM+Hni1vYtAiY2WMmNjJsA852duAPUbYf9Xz6vebGV+06AJ7/KuhfeVNXQPQZPuf/HRpzQvgBppwEmkf4mPq5+4XbD09trdlNbUDbId9kLKsDJmDrXf7ID2Tf/MkGcE8Lq77Tbs0X6lYwYbSRNSS2EhNdjl2bfV1HJKPELuD0gbsAL/ytf+xmX1x2VYj3n6g2OibpfRwBs4qP5Nnm9TB0d1Qktpf3ZuM8L+dp9pvi0lS6vZNRwE02Zxn0a4v2NGyOvALOafl6vzuL9Svib00Z7Vdo4yjcSFxrJoSWe1mpZIY/ApexlkjuSMpVhIoQSg8/zbeqZrWRpe8iTLIcZoJDyQjEeD6PEguDPzAAOeiWjCAw9QnE05fQmEJzukILZf5dKH6n6eyADCUyP6SE+RzkEgUdTDQy1D4R/D0sq6bxAbDA4eD2zg8SN2yg/bJCoeFIl6b4O1WtTpSVUefZxhjZcgtCHSexlHXz2cf8eupPNUSjsNwroDQZgHwCSgUs9JQSd4wAEPo+Sw82gOnhZBsaNDkQBv1R0Kr+7UCQOJ8uZTbwbRIUKcunkYgZ2LxdnGJZC/YG9HepiwH/z7fg6c9c36yTb0mA612f4u3/8OufWD19qQa4EDdy1w9LU5bdSD1hrpOUjncRgZyOZ5JxLD0+nxvRlkgWI85MUOKeNhZWlJUpYgOdfjl/SkmpiezWnLc7LsvJJ+nuo5JzxmlOQXKMojNnikxzIpEeYRHzxQZi4FJIPkaJ9S9paowutCr7QrS3CFjfxPMXgwjv7GALvhyB7CbJ7MRpILPTsWhXhIDU/FQH8ixHvoZ/1wxQevIGxYJ1eXlI3oGAx6NJOVeDWQXkYBQSCJ55EkeV/J4ck5oAdTkKdJwAPh2boCYpR1ZkCBniyBsaPwGFU9QJcnAkFvzBMdsOREIJtH1vEQXZ4PqMdt6OkSqI96OsNoFwX9sZWXDsA4FwfN0FsLjxyhXTwNo6+dAKn8PUeUBVuoZ+V55fF4CdqOM56VAju1DXfAAQ9PCaEKGqA1GoYQDdQE/XIeTsI0pQZjPjXMcfVq+IePqAfj4hE8dir95Z6ky6kk2QiEY31mx1CMp0TE1QDGjuHNE5klQ5nLAByjU8tYxjzQZgmy4UwpyY76skTdy7ySOQZjiQHlOl+B7BRxHv06wDrUg6svskgWqF9UI8nKvmQYoAwzJMMMKSHCAx3LkfRlArv68GrYVg4wt0Tm8ArOGLif9onHvi771NWXaIZ684FEc+hQXUqh8qsDWYN1lWZzJgTo/TYDOPd51bg14uEreITh9ij6OKdQkiQSD3HjO7wrlyfvy/z4geQH9zDdp3AiGAwSClwvkrGc7h/Jq/fuy+mD9+X8K+9LgbIpylZRCp2cwqXMByDxYCKLu0cyu3dH5l89kfN7B3J6OJTTYYx8Ox2Ix0FlA5B8eE+Kkw9ktv+eLI/uy+zwPTmf3JFzDG6Rj9H+FKN4KLIPm47vw8Z78vrOkVy+dyiLfQx6Cvdif3jDHsRyMU3lHPmzex9IdvcDqU6+ioGZYjDRFx6yw5u9zmojUnlw33rFl80WS7c8zOQ//sY3v/PLX30IT+DhK2zTZeGGpSPFoBoSyZxTaf9ALvfuSj49gtOMdLQ5eVM9r4+Hd6XI35fsCATcvS9n4wMQM5YejM1jeFSSQk8u8z46hk5XPAAXZMnJfXk9HcsyhQcnWHyw9sd9WLM3kGwfA3n3QGZ3D0HQsWQnx+g86idYoDjDcJUUJIz3pJgeSAldxYMP5M3RiRT7J1ItR1h+huyEHtJbjRO5PNqTs6MDme9hQI7uyJLlevBmzEKe+71MMsmhU/YwSAeHsPWuvDzguYUHUIP+9Aa6HKXzM+m/+VL6F68lnV1gucLaDpvqv4BDmGchFsOpVOAs/tNvfus7v+BBkXrio40FibdB41aI1SBKOG4eIPyMXrJ/R8oRT03j3Z53f+4uejIfDmU5BuHTQ1lO9mDgUA915NmBbJjnkFe8KbLcYIr8CepM5XI0xiBgFsRc9bkmo8PRQgp4Wz6FB+9j+ZmMZMHDKfsjFAHJvCPATp6KWSSoCx2LyQS2HckCxM8SkIJlS/fM6ALtLDFQ2WgEXQew71DKvWMpx3ck70/oNrqM8ouHnRXpEGWn0LUnF3sHco4w06qYdyKYAM7i+RtJTr+Q5OylpJfnWA6xY8I9gasoSeRmWc+zRT8LcALV7uaiYmEFAn45Ue7rEizDBm3fzZO3Ktzxlv1YZlN09ugupuB9Wd65Kwt4OmeBDEgkamNwVFd/DzPlPQzKsczQ8dPpvpyOhro88IbK+1GMDpfDgRK4OIQnHu5judqHc03QDzLCVREXdCoH2Tn0zA5PdKm4uAO9wzFsw0DzRskvzJg8rWQ5gr79+5D3seR9TfJ9LBnDu9A0cM4FxwNBPFy93MPAHZ/IKZa/N5g1OfojAyx7PEFOd192bpZuyemhJFjtAj/oC+7vuJIvfrjAwPvny4WNBqCUIux41tGmeOjqxPP/4M52HB2U07W1Eq7wOn0S49GfWBZ41B6Yg6BRbm61UQgMK0FGBe+reKwpliF6jTWGDpAg2uROMtbTjXkaHGZKhTR96GA+9LBDvGHzfMKC5xTCq7UO4ljHUAad1V0FiYS3YSD5YMUTlfngw5swB1pva7h/KOGI0UaeMJfDdt5EeZy3Ll3oly7dJDPBMqzkw5FoPsr2oIvn+fIZQbfIaF81wgbu0qK/+uu/qX7yH/8pc/7PeewAMtmZGCTaqWtMAM9o8BR7z+zkgZw9+AOsqV+X6mgiFxg1DhhnA7dzNgOYwEb4RQNcHEY4dVbORwB/FpU997E87cEenWRpXaRrAOsqdh96iJgDUjtAHVaG7ahNAG/wJMXAtljSrj7eBpv1UOdEAl2nV2YyfvNcJp9/JMNnj2X65ZcyWuBeBjVzDASXWz6pFnCmHLMlws03+vO/+Mvqw08fS+4O+2W3qZN7W8xAJZwNcpQv+ICBZWB+9Lu40TzAWo1tF9bYJU/J5GM0arKunzE6ECSbROMGwwFo/lM9UkBP1RqWgpuuqwpgLcQA6096aBU9mVOV8xT1NAwm9SGDNoaj56CeBrsiTm+Nmx38iRL30gY+beJSx1fBrFCzkY+taMr3PyD84lT2Xj6TwfNn0n/1Sh+YuNfPYWaBhzE+XXM5LbD+R1hGoz/85rdhaz3+9o0WaIQ93mI0kczHbu5XsxRbo8FdKbD7KKbYTg0SWWIUudTw/HC+LGL95knU6hvo/d67mFhnoI4rr/XYRVy5tATd1brwbnY4hE4O/WrKKjALjCCPsJ5vxwnqhy/VVuuZ8yigk0/BHHC+phjML2R6firDizNJZjyblq8f+N4GAwvCK+x2GM6xbS7AXfRH3/h23YoP0HYjnD5oRvsjSHkyfI79MncFOY+qJuHwcC4nfEzmQb22qJjQM51WxLiksNMuTXsFcYNjy1dIvAsD9t7ESwtsBl+cC6rOLsFAMxdg3OXprGEbdJDaOczbWTYkvK4L0I6Kh0dyMPFAlmZLGS5n2BbzQGPMUN0RcRZSvyMcM5X/xSNPJO0mnF+I6BrujOXbQX2hhJEtOM0RxMOdpvEgSD3fFT3EREcNlGJRLBdeJ5+4VI8maAtrsFTfeV+TsOFr6nnSmwFhCSVRw/bdaOgYJM2FcHQUpstHQ8JD0A4e36pzH/01J8MzA+ujMt8k4s7qWsfM1xd5vB+RR9QJCV+Bs0XbxZfuLJCg/supx39KPDMtziDLq/iIg91MUQgagpnboO54K9PPghX4OMtCNBrWQ4JGfbmwPsOUVjvXgtfHewm/ze/pVOSHKXxHpD2ml8Mh2Q0OVtfQG1ggEA8bORtnThye4a1jijKMU6G+P9AwGzCxeJjm406gx4ThQLrKon0Tl79Wj3lhPV8+FJ/3NmI6YjgJD5dHU8oR5wiaRxiOyTSN2yCUSKggrL8ZThErMuwvFgSJ9OJrgeXZpL+GwuHqkq6yoTD/OvWYflNQZhQkVme7qqdn8ygQDgJd1Bba7R7eAeoKZRe6tmqb0dYeyjZ0lffyvwn0HaQbA41N1yTcPpyuvjv08rbsQled/49yFfhyVieS/wFA+bL/I6C3LwAAAABJRU5ErkJggg==;" vertex="1" parent="1">
          <mxGeometry x="-725" y="-50" width="135.91" height="130" as="geometry" />
        </mxCell>
        <mxCell id="Lqcc9QHmygvOLOeyvJeg-113" value="" style="endArrow=classic;html=1;rounded=0;strokeWidth=6;" edge="1" parent="1">
          <mxGeometry width="50" height="50" relative="1" as="geometry">
            <mxPoint x="-1710" y="-610" as="sourcePoint" />
            <mxPoint x="-1090" y="-610" as="targetPoint" />
          </mxGeometry>
        </mxCell>
        <mxCell id="Lqcc9QHmygvOLOeyvJeg-115" value="" style="endArrow=classic;html=1;rounded=0;strokeWidth=6;" edge="1" parent="1" target="Lqcc9QHmygvOLOeyvJeg-109">
          <mxGeometry width="50" height="50" relative="1" as="geometry">
            <mxPoint x="-1710" y="-270" as="sourcePoint" />
            <mxPoint x="-888" y="-370" as="targetPoint" />
          </mxGeometry>
        </mxCell>
        <mxCell id="Lqcc9QHmygvOLOeyvJeg-116" value="" style="endArrow=classic;html=1;rounded=0;strokeWidth=6;" edge="1" parent="1">
          <mxGeometry width="50" height="50" relative="1" as="geometry">
            <mxPoint x="-1700" y="110" as="sourcePoint" />
            <mxPoint x="-680" y="110" as="targetPoint" />
          </mxGeometry>
        </mxCell>
        <mxCell id="Lqcc9QHmygvOLOeyvJeg-117" value="" style="endArrow=none;html=1;rounded=0;strokeWidth=8;edgeStyle=elbowEdgeStyle;entryX=0.583;entryY=-0.005;entryDx=0;entryDy=0;entryPerimeter=0;" edge="1" parent="1">
          <mxGeometry width="50" height="50" relative="1" as="geometry">
            <mxPoint x="-1960" y="-362.7" as="sourcePoint" />
            <mxPoint x="-1936.96" y="-1049.9999999999998" as="targetPoint" />
            <Array as="points">
              <mxPoint x="-1710" y="-719.78" />
            </Array>
          </mxGeometry>
        </mxCell>
        <mxCell id="Lqcc9QHmygvOLOeyvJeg-122" value="" style="endArrow=none;html=1;rounded=0;strokeWidth=8;edgeStyle=elbowEdgeStyle;" edge="1" parent="1">
          <mxGeometry width="50" height="50" relative="1" as="geometry">
            <mxPoint x="-1960" y="-220" as="sourcePoint" />
            <mxPoint x="-1960" y="-340" as="targetPoint" />
            <Array as="points">
              <mxPoint x="-1710" y="-586.78" />
            </Array>
          </mxGeometry>
        </mxCell>
        <mxCell id="Lqcc9QHmygvOLOeyvJeg-125" value="" style="endArrow=none;html=1;rounded=0;strokeWidth=8;edgeStyle=elbowEdgeStyle;" edge="1" parent="1">
          <mxGeometry width="50" height="50" relative="1" as="geometry">
            <mxPoint x="-1950" y="400" as="sourcePoint" />
            <mxPoint x="-1940" y="-160" as="targetPoint" />
            <Array as="points">
              <mxPoint x="-1710" y="170.22000000000003" />
            </Array>
          </mxGeometry>
        </mxCell>
      </root>
    </mxGraphModel>
  </diagram>
</mxfile>
